<?xml version="1.0" encoding="UTF-8"?>
<svg id="Capa_1" xmlns="http://www.w3.org/2000/svg" version="1.1" viewBox="0 0 1080 1080">
  <!-- Generator: Adobe Illustrator 29.0.0, SVG Export Plug-In . SVG Version: 2.1.0 Build 186)  -->
  <path d="M704.7,127.6c106.3-4.8,205.6,55.3,249.3,151.8,120,264.9-224,517.6-394.2,669-29.3,19-75.2-30.1-99.9-50.3-132.4-108.5-351.2-314.3-358.5-494.7-9.6-236.5,265.5-361.4,438.4-203.2,45.9-40.7,102.6-69.7,164.8-72.5ZM330.7,171.3c-130.2,16.3-210,146.9-182.7,272.6,63.1,198.9,238.5,337.1,392.7,465.7,145.8-129.3,413.6-324.9,395.6-544.1-13.2-160.7-200.1-251-336-161.1-25,16.5-35.2,39-59.7,52.5-24.6-13.6-34.8-36-59.7-52.5-44.7-29.6-97.1-39.7-150.3-33.1Z"/>
  <path d="M512.7,431.1c1.2.8,11.7,25.5,11.5,26.9-1.2,8.4-52.2,69.8-48.9,72.7,35.7-16.8,45.8,28.2,68.2,46.8l-27.8,27.9-46.7-37.2,5.3,164.1-4.9,7.5c-8.1,6.6-37.8,2.7-37.8-6.6v-158.8l-72,62c-10.6,4.2-22.3-25.8-20.8-32.7,41.4-42.2,93.8-77.5,123.9-129h-96.5c-12.7,0-12.7-43.6,0-43.6h146.4Z"/>
  <path d="M562.5,334.6c63.5-37.1,37.9,38.5,37.1,74.4-2,86.7,8.8,172.2,6.5,258.8h93.4c12.2-32-7.8-89.9,43.7-59.3,16.7,18.5.6,83-23.2,95.3-27.2,14-157.5,18.1-157.5-26.7v-342.5Z"/>
  <path d="M413.9,355.6c-1.6-73.9,94.1,3.1,85.5,33.7-14.3,50.8-62.4-28.7-85.5-33.7Z"/>
</svg>