<?xml version="1.0" encoding="UTF-8"?>
<svg id="Capa_1" xmlns="http://www.w3.org/2000/svg" version="1.1" viewBox="0 0 1080 1080">
  <!-- Generator: Adobe Illustrator 29.0.0, SVG Export Plug-In . SVG Version: 2.1.0 Build 186)  -->
  <path d="M434.5,572.2c67.6-58,166.7-67.8,243.4-20.2,49.7-59.2,130.2-81.2,203.2-54,26.2,9.8,74.8,40.2,30.1,59-49.4-49.8-135.4-50.8-188-4.4-24.4,21.6-9.7,43.2-39.8,49-9.9-.3-20.4-17.5-30.3-23.7-75.8-47.5-173.2-19.8-225.6,48.9-11.7,15.3-33.2,70.5-52.6,66.4l-12.2-7.6c-6.4-10.3,26.9-62.6,32.1-81.7,22.1-81.1-9.2-143.4-4-221,1.1-17,16.4-70.2,14.5-78.7-1.1-5.3-21.4-5.2-14.7-25.1,6.8-20.5,52.1,4.5,66.6,6.5,11,1.5,59.8,2.5,66.4-1.8,15.5-23-25.8-44.4-19.2-68.1,13.3-47.9,49.7,41.3,53.4,43.7,17.4,0,37.4-7.6,32.5-27.6-2-8.1-40.3-89.8-44.6-93.7-6.8-6.3-14-9.7-23.6-8.8-12.2,1.1-80.4,30.3-95.8,37.7-94.5,45-79.1,82.3-119.1,167-49.9,105.5-117.7,201.6-119.3,324.8-.3,19.3,6,35.3,5.3,54.1-.7,20.3-11,38-10.6,59.1.9,43.6,26.4,41.5,60.7,53.1,147.5,50.1,337.7,99.5,474.1-7,7.7-6,15.8-25.7,24.9-23.7,24.9,31.3,40.9,69.7,69.6,98.4,25.9,25.9,62.7,45.2,94,64,0,57.1-78.8-7.4-98.8-24.7-28.3-24.4-47.6-53.7-69.7-83.3-121.9,69.4-224.8,81.2-361.1,50.5-36.5-8.2-178.2-46.5-202-64.4-39.8-29.8-17.4-80-16-117.3,2.2-60.3-2.9-104.9,12.3-165.2,21.2-84.2,71.7-155.5,107-233.4,29.3-64.8,30-122.4,94.5-162,38.5-23.7,157.6-81.2,195.4-45.8,11.3,10.6,59.8,121.1,57.4,135.6-3.4,20.7-24.9,33.8-42.3,41.7-7.1,3.2-17.3.8-24.5,5.1-4.4,2.6-6.1,11.1-10.4,14.3-28.1,20.3-72.8,14-105.3,8.3l-5.3,4.3c-29.4,83.5,3.7,166.5-2.4,251.6Z"/>
  <path d="M660,711c17.3-2.5,26.3,13.4,13.3,28.6-40.2,47.1-143.9,66.2-197.9,35.9-11.9-6.7-27.8-18.4-13.8-30.7,12.8-11.3,32.1,7,49.8,9.5,32.3,4.6,74.6,1,104-13.5,13-6.4,34.5-28.4,44.6-29.8Z"/>
</svg>