<?xml version="1.0" encoding="UTF-8"?>
<svg id="Capa_1" xmlns="http://www.w3.org/2000/svg" version="1.1" viewBox="0 0 1080 1080">
  <!-- Generator: Adobe Illustrator 29.0.0, SVG Export Plug-In . SVG Version: 2.1.0 Build 186)  -->
  <path d="M695.5,475l-22.6,11.3c-97.4-158,115.8-145.6,158.6-21.4,3.1,9.1.4,20.6,3.3,28.4,1.8,4.9,28,25.7,35.2,38.8,13.1,23.7,18.6,50.4,15.3,77.1-2.3,18.4-17.4,43.7-18.4,55.1-1.1,13.1,14.4,39,14.5,57.3.2,35.6-18.7,74.6-44.8,98-10.6,9.5-42.7,25.1-44.1,27.3-5.9,9.3-4.1,41-22.2,65.1-25,33.3-40.7,24.4-68.7,37s-36.4,26.7-65.8,29.3c-40.4,3.6-68.6-8.2-96.2-36.9-35.8,30.9-59.2,44.7-109.1,35.4-19.8-3.6-29.3-17.4-44.9-23.9-46-19.3-68.8-12.8-92.2-66.5-5.4-12.4-5.5-30.3-12.6-40.3-20.6-28.9-60.1-28.4-76.6-87.3-14.7-52.1,9.9-67.2,8.7-95.5-.3-7.5-10.8-20.9-13.4-32-8.7-36-8.1-58,8.2-91.7,8-16.6,31.9-38.1,36.4-48.3,6-13.5,4-32.2,12.4-51,12.5-27.8,46.3-44.7,51.2-54.6,10.5-21.5,0-41.5,26.3-68.9,21.3-22.2,37.7-19,61-28.9,15.6-6.6,26.9-20.5,45.3-23.4,38.1-6,70.1,1.5,95.6,31.1,18.5-9.5,36.1-27.6,57.8-31,14.2-2.3,54.2-3.1,59.7,13.7,13.8,42-23.8,18.6-39.5,18.1-26.3-.8-53.3,23.5-55.1,49.7v545c6,37.1,43.8,61.3,79.8,53.2,20.2-4.5,30.3-21.8,42.2-26.6,19-7.8,34.4-1,55.4-18.7,29-24.6,15.4-55.5,26.4-74.1,10.5-17.7,70.6-18.6,80.7-77.9,8.6-50-17.2-62.1-18.2-78.1-.3-4.9,19.3-30.1,22.4-44.6,6.1-28.6,5.1-54.8-11.2-79.3-7.3-10.9-27.3-23.4-31.2-32.2-7.2-16.2-3.1-40.2-14.1-60-16-28.9-69.1-55.3-101.6-44.8-23.7,7.6,12.8,56,6.3,67.1ZM384.6,475.3c-5.5-7.6,26-59.3,1.5-67.5-54-6.4-92.2,20.4-106.4,71.9s1.1,23.1-3.8,33.2c-7.3,15.1-36.8,22.2-43.8,62-9.1,52.5,18.6,62.3,19.9,89.1.8,17.1-21.1,38.2-15.4,78.4,8.9,62.9,70.9,64.4,81.6,82.3,9.7,16.2-5.6,44.3,23.5,71.7,21.9,20.8,39,12.5,58.3,21,6.7,3,13.8,15.1,26.5,21.1,42.2,19.7,84.4-3.7,94.9-48V341.3c-3.4-25.6-36.2-45.7-60.6-45.5-23.9.2-38.2,22-55.7,29.1-9.6,3.9-19.4,1.4-27.7,4.1-13.6,4.4-33,30.8-30.3,46.4,52.3-11.3,93.8,3.7,83.3,64.9-4.5,26.4-16.4,57.5-45.9,35.1Z"/>
  <path d="M733.3,100.3c30-3.8,66.4,37.7,78,62.1,4.6,9.7,6,32,11.6,36.1,3.9,2.9,22.6-8.7,29.8,1.7,50,79-16.5,178.7-108.8,145.8-48.6-17.3-71.2-63.6-48.8-112.1,12.5-27.2,42.6-39.5,46.6-75.5,2.4-21.5-9.7-37.2-8.4-58.2ZM833.7,264.3c-39.5,9-39.1-43.3-44.6-69.1-1.3-5.8-6-25.5-13.5-26.1-6,46.5-72.7,74.3-47,123.6,24.5,46.9,104.7,23.9,105-28.4Z"/>
  <path d="M721.1,710.2c-18.8-21.3-57.4-20.8-82.6-12.3l-9.7-23.7c33.5-35.9,92-10.9,123,17.6,9.7-8.9,59-38.2,65.8-16.9,8.4,26.5-60.9,49.7-76.3,70.6-11.5-8-12.2-26.3-20.1-35.2Z"/>
  <path d="M632.1,761.9c10.1,36.6,50.7,46.2,84.7,47.8v30.6c-44.2,5.4-107.2-16.7-115.4-65l30.7-13.4Z"/>
  <path d="M763.4,524c12.4-3.3,20.1,10.4,27.9,18-23.6,22.7-52.8,64-73.7,15.8l45.8-33.8Z"/>
  <path d="M637.3,575.6c-17.2,6.2-66-15-55-36.3,11.7-22.4,79.8,9.7,55,36.3Z"/>
  <path d="M441.7,692.1c-42.4-.8-85.8-3-95.8,47.1l-12,4.4c-12.7-1.1-31.6-25.2-43.2-34.2-10.2-8-36.6-9.7-32.5-29.1,7.4-35.8,58.6,11.9,70.5,10.9,2.4-.2,29-21.2,41.3-25.9,26.6-10.1,48.9-11.9,75.5.8l-3.7,26Z"/>
  <path d="M363.6,840.2c-16.1-48.3,75.4-23.4,83.9-76.5,62.2-.9,17.9,49.8-14.1,65.5-23.3,11.4-43.9,14.4-69.8,11Z"/>
  <path d="M295.5,530.1c18.2-17.6,43.3,17.9,59.9,25-1.4,53.3-81.6-4-59.9-25Z"/>
  <path d="M493.6,558.9c-13.7,15.6-56.9,27.7-56.8-1.2,0-9,38.4-29.1,45.3-29,16,.4,22.3,17.8,11.5,30.1Z"/>
</svg>