<?xml version="1.0" encoding="UTF-8"?>
<svg id="Capa_1" data-name="Capa 1" xmlns="http://www.w3.org/2000/svg" viewBox="0 0 320.82 74.78">
  <g>
    <path d="M85.19,28.31l.84-.72c.63.95,1.28,1.46,2.36,1.46,1.17,0,2.02-.83,2.02-2.45v-6.85h1.18v6.84c0,1.2-.35,2.1-.94,2.69-.58.56-1.36.85-2.27.85-1.55,0-2.54-.76-3.19-1.81Z"/>
    <path d="M97.61,19.68h1.09l4.7,10.3h-1.25l-1.21-2.7h-5.62l-1.22,2.7h-1.19l4.7-10.3ZM100.49,26.22l-2.35-5.2-2.36,5.2h4.7Z"/>
    <path d="M105.3,19.75h3.86c2.33,0,3.86,1.23,3.86,3.24v.03c0,2.21-1.86,3.34-4.06,3.34h-2.51v3.61h-1.17v-10.22ZM109.02,25.31c1.71,0,2.83-.91,2.83-2.25v-.03c0-1.46-1.11-2.22-2.77-2.22h-2.61v4.5h2.55Z"/>
    <path d="M117.88,19.68h1.09l4.7,10.3h-1.25l-1.21-2.7h-5.62l-1.22,2.7h-1.19l4.7-10.3ZM120.76,26.22l-2.34-5.2-2.36,5.2h4.7Z"/>
    <path d="M125.57,19.75h1.09l6.5,8.19v-8.19h1.14v10.22h-.93l-6.67-8.38v8.38h-1.14v-10.22Z"/>
    <path d="M141.65,19.75h1.17v6.1l5.93-6.1h1.5l-4.42,4.47,4.62,5.75h-1.46l-3.97-4.95-2.2,2.21v2.75h-1.17v-10.22Z"/>
    <path d="M156.49,19.68h1.09l4.7,10.3h-1.25l-1.21-2.7h-5.62l-1.22,2.7h-1.19l4.7-10.3ZM159.37,26.22l-2.35-5.2-2.36,5.2h4.7Z"/>
    <path d="M164.18,19.75h4.44c1.27,0,2.29.38,2.93,1.02.5.5.8,1.21.8,2.02v.03c0,1.69-1.18,2.69-2.8,2.98l3.17,4.18h-1.43l-2.99-3.97h-2.95v3.97h-1.17v-10.22ZM168.52,24.96c1.55,0,2.65-.79,2.65-2.1v-.03c0-1.26-.97-2.02-2.64-2.02h-3.19v4.15h3.17Z"/>
    <path d="M178.92,19.68h1.09l4.7,10.3h-1.25l-1.21-2.7h-5.62l-1.22,2.7h-1.19l4.7-10.3ZM181.8,26.22l-2.35-5.2-2.36,5.2h4.7Z"/>
    <path d="M187.91,20.82h-3.47v-1.07h8.11v1.07h-3.47v9.16h-1.18v-9.16Z"/>
    <path d="M194.51,19.75h7.46v1.05h-6.3v3.49h5.63v1.05h-5.63v3.58h6.37v1.05h-7.54v-10.22Z"/>
    <path d="M203.48,24.99h4.1v1.18h-4.1v-1.18Z"/>
    <path d="M210.07,19.75h3.58c3.24,0,5.49,2.21,5.49,5.08v.03c0,2.88-2.24,5.11-5.49,5.11h-3.58v-10.22ZM211.23,20.82v8.09h2.42c2.61,0,4.28-1.75,4.28-4.02v-.03c0-2.26-1.67-4.05-4.28-4.05h-2.42Z"/>
    <path d="M221.01,24.89v-.03c0-2.82,2.14-5.29,5.28-5.29s5.25,2.44,5.25,5.26v.03c0,2.82-2.14,5.29-5.28,5.29s-5.25-2.44-5.25-5.26ZM230.33,24.89v-.03c0-2.32-1.71-4.22-4.07-4.22s-4.04,1.87-4.04,4.19v.03c0,2.32,1.71,4.22,4.07,4.22s4.04-1.87,4.04-4.19Z"/>
  </g>
  <g>
    <path d="M85.19,32.32h8.32c2.71,0,4.55.7,5.73,1.88,1.03,1.03,1.56,2.41,1.56,4.1v.05c0,2.71-1.41,4.5-3.62,5.43l4.2,6.13h-5.6l-3.54-5.33h-2.16v5.33h-4.87v-17.59ZM93.31,40.77c1.63,0,2.61-.8,2.61-2.09v-.05c0-1.41-1.03-2.11-2.64-2.11h-3.22v4.25h3.24Z"/>
    <path d="M107.39,43.33l-6.71-11.01h5.55l3.62,6.41,3.64-6.41h5.45l-6.68,10.93v6.66h-4.87v-6.58Z"/>
    <path d="M118.17,41.17v-.05c0-5.05,4.07-9.15,9.5-9.15s9.45,4.07,9.45,9.1v.05c0,5.05-4.07,9.15-9.5,9.15s-9.45-4.07-9.45-9.1ZM132.11,41.17v-.05c0-2.56-1.81-4.75-4.5-4.75s-4.47,2.16-4.47,4.7v.05c0,2.51,1.83,4.75,4.52,4.75s4.45-2.16,4.45-4.7Z"/>
    <path d="M139.51,32.32h9.02c2.21,0,3.77.55,4.8,1.56.7.73,1.13,1.66,1.13,2.86v.05c0,2.04-1.13,3.24-2.71,3.92,2.14.7,3.49,1.91,3.49,4.3v.05c0,3.04-2.44,4.85-6.66,4.85h-9.07v-17.59ZM149.66,37.75c0-1.01-.73-1.51-2.21-1.51h-3.19v3.09h3.07c1.51,0,2.34-.5,2.34-1.53v-.05ZM150.37,44.33c0-.98-.75-1.58-2.39-1.58h-3.72v3.24h3.77c1.51,0,2.34-.58,2.34-1.61v-.05Z"/>
    <path d="M157.29,42.2v-9.87h4.92v9.77c0,2.54,1.26,3.74,3.24,3.74s3.27-1.13,3.27-3.62v-9.9h4.92v9.75c0,5.65-3.24,8.17-8.24,8.17s-8.12-2.51-8.12-8.04Z"/>
    <path d="M176.53,39.96h8.24v4.17h-8.24v-4.17Z"/>
    <path d="M187.73,32.32h4.87v7.14l6.06-7.14h5.78l-6.66,7.54,6.88,10.05h-5.83l-4.45-6.53-1.78,1.96v4.57h-4.87v-17.59Z"/>
    <path d="M212.84,32.2h4.7l7.49,17.71h-5.23l-1.26-3.17h-6.81l-1.26,3.17h-5.1l7.46-17.71ZM217.11,42.95l-1.96-4.98-1.99,4.98h3.94Z"/>
    <path d="M226.57,32.32h4.87v17.59h-4.87v-17.59Z"/>
  </g>
  <g>
    <path d="M93.62,61.51c.25-1.83-.11-4.16-.42-6.21-.07-.47-.14-.93-.2-1.35-.03-.19-.02-.4-.02-.63,0-.41.02-.84-.17-1.13-.06-.09-.24-.17-.42-.25-.31-.13-.69-.3-.81-.66h-.24c.04.35-.2.43-.41.5-.06.02-.13.04-.19.07-1.37.64-3.41,1.48-5.3,1.48-.04,0-.08,0-.12,0-.07,0-.13.05-.13.12v1.97s0,.04.02.06c.49.75.51,2.21.54,3.75.03,1.74.06,3.55.83,4.05.06.04.11.05.15.05.14,0,.25-.17.39-.37.14-.21.31-.45.56-.57.28-.13,2.5-.62,2.8-.62.02,0,.03,0,.04,0,.41.08.64.48.86.86.25.43.48.83.93.83.12,0,.24-.03.38-.08.04-.02.07-.06.08-.12.03-.41.24-.69.44-.96.18-.25.36-.48.4-.81ZM91.78,61.21l-.23.15s-.1.05-.16.05c-.07,0-.14-.02-.19-.07-.3-.24-.64-.36-1.01-.36-.46,0-.92.17-1.41.34-.46.16-.93.33-1.41.37,0,0-.02,0-.02,0-.15,0-.28-.13-.29-.29l-.1-2.95c0-.12.06-.22.16-.27.27-.14.8-.31,1.37-.48.77-.24,1.65-.51,1.96-.76.03-.02.05-.06.05-.1,0-.04-.01-.07-.04-.09-.24-.22-.5-.33-.8-.33-.55,0-1.15.36-1.72.7-.25.15-.49.29-.72.41-.04.02-.09.03-.13.03-.11,0-.22-.07-.26-.17-.17-.38-.2-1.35-.22-2.14,0-.38-.02-.71-.04-.91-.01-.1.03-.2.1-.26.59-.47,3.54-1.16,4.3-1.31.02,0,.04,0,.06,0,.1,0,.19.05.24.13l.22.33s.05.1.05.15l.39,7.56c0,.1-.05.2-.13.26Z" style="fill: #1e1e1c;"/>
    <path d="M109.34,57.03l-.1-.09c-.62-.57-1.25-1.2-1.19-1.62.01-.1.09-.18.19-.19l3.25-.58c.16-.13.13-.23.12-.26-.09-.3-.8-.59-1.09-.6h0c-.23,0-.78.22-1.26.42-.45.18-.87.36-1.12.4-.01,0-.02,0-.04,0-.13,0-.23-.1-.23-.23,0-.24,0-.47.01-.7.02-.81.05-1.58-.36-2.32-.01-.02-.03-.03-.06-.03h-.77s-.04.01-.05.02-.02.02-.02.05l.35,3.06c.01.11-.06.22-.17.25l-3,.88s-.05.04-.05.07c.07.3.24.43.56.43.3,0,.68-.12,1.02-.23.25-.08.49-.16.67-.18.03,0,.05,0,.08,0,.17,0,.24.08.28.14.17.33-.32,1.13-.77,1.79-.03.04-.05.08-.06.1-.29.45-.75.95-1.2,1.45-.43.47-.83.91-1.02,1.23-.15.26-.21.45-.19.71l3.68-3.31s.1-.06.15-.06c.07,0,.13.03.17.08.04.05.07.11.06.18l-.14,1.73c0,.06-.03.11-.07.15-.24.23-.73.33-1.16.41-.2.04-.4.08-.54.13-.07.02-.14.04-.21.05-.13.02-.26.05-.3.12-.02.04-.03.1,0,.18.02.08.08.17.32.17.21,0,.49-.07.77-.14.29-.07.58-.14.82-.14.17,0,.3.04.39.12.05.04.07.11.06.18-.02.26-.05.5-.08.74-.09.67-.17,1.26.13,1.93.01.02.03.04.06.04h.78s.06-.03.06-.06l.02-2.99c0-.1.07-.2.17-.22l1.67-.44s.04-.03.04-.04c0-.01,0-.04-.01-.06l-.02-.02c-.24-.27-.43-.49-.76-.49-.07,0-.16.01-.24.04-.08.02-.16.09-.24.16-.12.1-.24.2-.38.2-.12,0-.24-.07-.35-.22-.01-.01-.02-.03-.02-.05l-.09-2.3c0-.06.02-.13.07-.17.04-.05.1-.07.16-.07.01,0,.02,0,.03,0,.25.04.43.24.59.41.04.04.07.08.11.12.24.25.57.67.96,1.15.73.92,1.64,2.06,2.13,2.26.08.03.24.07.56.07.61,0,1.49-.13,2.06-.31.04-.01.04-.04.04-.05,0-.01,0-.04-.04-.06-1.67-.8-3.6-1.83-5.23-3.34Z" style="fill: #1e1e1c;"/>
    <path d="M152.9,57.28c-.25-.34-1.05-.79-1.25-.83-.08-.02-.17-.02-.27-.02-.33,0-.72.08-1.09.17-.36.08-.69.15-.97.15s-.46-.07-.57-.23c-.16-.23-.14-.63.08-1.25.04-.1.12-.18.21-.21.12-.04.29-.05.53-.05.15,0,.31,0,.47.01.16,0,.33.01.49.01.23,0,.56-.01.72-.13.05-.04.07-.12.04-.19-.27-.5-.75-.54-1.23-.54-.07,0-.15,0-.22,0-.07,0-.15,0-.22,0-.61,0-1.22-.08-1.32-1.05-.04-.41.46-.51.95-.61.42-.08.9-.18,1.03-.46.08-.16.05-.38-.09-.67-.03-.05-.08-.08-.14-.08h-1.02c-.08,0-.15.06-.16.14-.03.25-.24.3-.42.35-.07.02-.14.03-.2.06-.16.06-.48.16-.84.27-.73.22-2.08.64-2.23.86-.02.13,0,.18,0,.19.01.02.05.02.1.02.05,0,.1,0,.16-.01.05,0,.11-.01.16-.01.15,0,.33-.05.53-.09.26-.06.53-.12.78-.12.39,0,.66.15.82.46.13.24.14.45.05.62-.23.4-1.05.45-1.85.5-.59.04-1.25.08-1.37.28-.01.06,0,.11.03.16.13.17.56.24.81.25h.04c.27,0,.54-.06.8-.11.25-.05.52-.11.78-.11.18,0,.35.03.51.08.05.02.09.04.12.06.11.1.18.25.19.44.02.38-.18.81-.38,1.03-.05.06-.12.09-.2.1l-4.6.48c-.08,0-.14.08-.14.16v.31s.02.08.05.11c.03.03.07.05.11.05,0,0,.01,0,.02,0l4.28-.53s.03,0,.04,0c.06,0,.13.02.18.05l.23.15c.12.07.17.21.15.34l-.65,3.29c-.02.09-.07.17-.15.21l-.35.22s-.1.05-.15.05c-.02,0-.04,0-.06,0-.18,0-.36-.08-.52-.15-.15-.07-.29-.13-.42-.13-.02,0-.03,0-.05,0-.06,0-.1.05-.12.11-.01.05,0,.12.05.17.29.25.49.57.69.88.31.49.58.92,1.1.92.07,0,.14,0,.21-.02.05-.01.1-.06.12-.12l1.47-5.69c.03-.12.12-.21.23-.23.07-.02.15-.02.24-.02.3,0,.72.07,1.17.15.53.09,1.14.19,1.64.19.4,0,.68-.06.86-.2.07-.05.08-.16.03-.23Z" style="fill: #1e1e1c;"/>
    <g>
      <path d="M185.33,60.81s-.07,0-.12.02c-.11.03-.39.2-.68.38-.38.23-.81.5-1.12.61-.04.01-.08.02-.12.02-.09,0-.18-.04-.24-.11-.06-.07-.1-.16-.09-.25l.21-3.23s0-.08.03-.12c.21-.43,1.23-.55,2.22-.66.63-.07,1.23-.14,1.53-.28.04-.02.06-.07.07-.09.06-.19.16-.44.27-.72.38-.98.96-2.47.55-3.13-.13-.21-.34-.32-.66-.35-.11,0-.97.23-1.73.43-.8.21-1.64.44-1.95.49-.25.04-.53.07-.86.07-.06,0-.12,0-.18,0h0s-.09.02-.12.05c-.03.03-.05.07-.05.11v9.31c0,.09.07.16.16.16h.38c.07,0,.13-.04.15-.09.19-.51.76-.94,1.32-1.36.48-.36.94-.71,1.09-1.06.03-.07.04-.14.02-.17-.02-.03-.07-.04-.1-.04ZM183.24,56.45c.22-.45.99-.64,1.68-.81.39-.1.87-.21.9-.34.03-.14.02-.24-.02-.3-.04-.05-.13-.08-.25-.08-.34,0-.88.21-1.32.38-.17.06-.32.12-.45.17-.03.01-.07.02-.11.02-.09,0-.18-.04-.24-.1-.06-.06-.09-.14-.09-.23.03-1.07,1.53-1.2,2.62-1.3.14-.01.27-.02.38-.04.01,0,.02,0,.04,0,.16,0,.29.1.32.24.12.52-.15,1.76-.32,2.24-.04.1-.12.18-.23.21l-2.51.69s-.06.01-.09.01c-.13,0-.25-.08-.31-.19-.1-.21-.11-.4-.02-.57Z" style="fill: #1e1e1c;"/>
      <path d="M190.77,63.21c-.37-.25-.83-.53-1.32-.83-1.37-.84-2.92-1.78-3.22-2.53-.11-.27.29-.46.78-.71.43-.22.92-.46,1.01-.73,0-.02,0-.05,0-.09-.13-.34-.29-.8-.63-.8-.02,0-.04,0-.05,0-.03,0-.06.03-.09.06l-1.08,1.38c-.06.08-.16.13-.27.13-.06,0-.12-.02-.17-.04l-1.17-.67c-.24.07-.28.14-.28.16-.02.12.28.33.46.46.17.12.28.2.32.28.07.13.08.31.09.46,0,.12.01.25.05.3,0,0,.07.02.12.04.19.06.52.17.76.39.37.35.73.94,1.1,1.57.31.52.64,1.07.96,1.43.03.03.08.05.13.05h2.41c.09,0,.14-.06.16-.12.02-.06,0-.14-.07-.19Z" style="fill: #1e1e1c;"/>
      <path d="M185.28,52.88s.04.01.06.01c.03,0,.07-.01.1-.03l.29-.18c.06-.04.1-.11.09-.18-.03-.37-.33-.53-.68-.71-.24-.13-.49-.26-.66-.47-.02-.03-.08-.08-.15-.08h-.13c-.07,0-.13.03-.16.09-.04.05-.04.12-.01.18.24.52.88,1.23,1.25,1.38Z" style="fill: #1e1e1c;"/>
    </g>
    <g>
      <path d="M124.52,58.15c1.12-.74,2.34-1.9,2.43-2.92.04-.41-.12-.78-.45-1.1-.06-.05-.07-.13-.04-.2.03-.07.1-.12.17-.12h1.19c.08,0,.15.04.18.11.15.38.17.94.2,1.53.03.83.06,1.7.49,1.89.2.09.9.19,1.62.19.76,0,1.3-.11,1.45-.3.04-.05.05-.1.04-.16-.06-.25-.23-.36-.57-.36-.19,0-.41.03-.65.07-.24.04-.49.07-.72.07-.32,0-.55-.08-.7-.23-.17-.17-.25-.43-.24-.79,0-.26.04-.47.08-.66.08-.45.14-.77-.31-1.28-.05-.05-.06-.12-.04-.19.02-.07.08-.11.15-.12l2.98-.37s.02,0,.02,0c.09,0,.16.05.18.13.1.35-.11.66-.29.94-.22.34-.33.54-.12.74l.03.04s0,0,0,0l-.02-.04,2.39-.96.05-.03s0,0,0-.01l-.04.02c-.4-.97-1.02-1.41-2.01-1.41-.45,0-.93.08-1.44.17-.53.09-1.08.18-1.61.18-.09,0-.17,0-.25,0-.09,0-.17-.08-.18-.17l-.18-1.46s0-.02-.02-.02h-1.03s-.01,0-.02,0c.01.26.1.49.18.72.12.32.23.62.09.87-.1.19-.32.32-.7.4-.39.09-.98.21-1.55.21-.68,0-1.22-.16-1.64-.5,0,0-.01,0-.02,0,0,0,0,0-.01,0-.09.19-.22.41-.36.64-.39.65-.87,1.45-.55,1.9l.59.23s0,0,0,0c0,0,.01,0,.02,0l.88-1.59c.03-.06.09-.09.15-.1l1.49-.09s0,0,0,0c.11,0,.19.07.2.17.14,1.1-.37,1.92-.87,2.71-.25.39-.51.8-.68,1.24,0,0,0,.01,0,.02l.04.04s0,0,0,0l-.02-.04Z" style="fill: #1e1e1c;"/>
      <path d="M129.34,58.27c-.29,0-3.78.78-3.97.89-.12.07-.13.12-.13.13.03.12.7.27,1.48.27.11,0,.21,0,.29-.01,0,0,.02,0,.03,0,.12,0,.23.09.25.21.17,1.03.07,1.76-.31,2.21-.55.66-1.58.67-2.77.69-.51,0-1.05.01-1.57.08-.04,0-.07.04-.07.08v.51s.04.08.08.09c.18.01.38.02.57.02.92,0,1.84-.14,2.72-.28.84-.13,1.71-.27,2.61-.29h.04c.25,0,.81.03,1.46.07.88.05,1.98.12,2.64.12.19,0,.34,0,.44-.02.02,0,.05-.01.06-.03.01-.02.02-.04.02-.06-.12-.72-.63-1.06-1.63-1.06-.62,0-1.32.13-1.95.25-.41.08-.8.15-1.11.17,0,0-.02,0-.02,0-.05,0-.09-.01-.14-.04l-.31-.2c-.08-.05-.13-.15-.12-.24l.26-2.11c.01-.11.1-.2.21-.22l2.09-.36s.07-.04.07-.08v-.31s-.03-.06-.07-.08c-.12-.04-.24-.1-.35-.15-.25-.12-.49-.23-.78-.23v-.04s0,0,0,0v.04Z" style="fill: #1e1e1c;"/>
    </g>
    <g>
      <path d="M164.15,55.09l2.44-.37s.02,0,.03,0c.1,0,.19.08.2.18.08.97-.47,1.1-1.22,1.29-.01,0-.02.02-.02.03v.09c.17,2.69.43,4.18.76,4.44,0,0,.01,0,.02,0,.04,0,.07,0,.11,0,.28,0,.57-.17.86-.33.3-.17.6-.34.91-.34h.03c.08,0,.19.08.44.24.31.2.78.51,1.04.51.06,0,.16,0,.16-.23v-4.7c0-.46-.32-.69-.96-.69-.54,0-1.11.17-1.27.22-.02,0-.04,0-.06,0-.09,0-.17-.06-.19-.14-.07-.23-.04-.44.08-.63.34-.53,1.36-.71,2.25-.87.51-.09,1.05-.18,1.16-.32,0,0,0-.02,0-.03-.29-.3-.6-.44-.97-.44-.32,0-.65.1-.99.21-.15.05-.3.09-.46.13-.02,0-.03,0-.05,0-.08,0-.15-.05-.18-.12-.03-.07-.02-.15.03-.21.08-.09.16-.18.23-.26.41-.44.7-.75.22-1.38,0,0-.02-.01-.02-.01h-.67s-.02,0-.03.02c-.01.08-.03.16-.04.24-.16.95-.37,2.26-1.45,2.39,0,0-.02,0-.02,0-.07,0-.13-.03-.17-.09-.04-.06-.04-.12-.01-.18.13-.29.13-.57,0-.8-.19-.31-.62-.52-1.13-.54h0s-.03.01-.03.02c-.03.37.22.6.49.84.25.22.5.46.54.81,0,.08-.03.16-.11.2-.12.07-.35.11-.61.16-.55.1-1.28.24-1.32.64ZM168.66,55.93h0c.11,0,.19.08.2.18l.19,3.27c0,.1-.06.19-.16.2l-2.03.37s-.02,0-.04,0c-.1,0-.19-.08-.2-.18-.05-.64.49-.82.95-.97.42-.14.81-.27.89-.68,0-.01,0-.03-.01-.03-.05-.02-.11-.03-.18-.03-.28,0-.63.16-.9.29-.22.1-.39.18-.52.18-.01,0-.02,0-.03,0-.16-.02-.37-.06-.4-.22-.04-.22.35-.46,1.01-.82.31-.17.83-.46.85-.57-.02-.11-.08-.15-.2-.15-.23,0-.59.18-.89.32-.21.1-.4.19-.53.22-.01,0-.02,0-.04,0-.1,0-.19-.09-.19-.19-.01-.28.07-.51.24-.69.44-.47,1.37-.5,1.99-.53Z" style="fill: #1e1e1c;"/>
      <path d="M173.29,61.96s-.02-.05-.07-.06l-9.21-.29c-.14,0-.25-.12-.24-.26,0-.2.06-.4.11-.6.07-.25.14-.49.08-.7-.04-.15-.18-.27-.34-.4-.21-.18-.44-.38-.45-.68,0-.28.21-.64.42-.98.13-.22.26-.43.33-.61,0-.02,0-.05-.02-.07-.28-.37-.53-.54-.8-.54-.15,0-.31.05-.48.15-.16.09-1.45,1.18-1.53,1.28-.11.25-.08.31-.07.32,0,.01.04.01.05.01.16,0,.48-.16.76-.31.19-.09.36-.18.51-.24.03-.01.06-.02.09-.02.07,0,.15.03.2.09.05.06.06.13.05.2-.12.57.06,1.06.24,1.54.24.65.47,1.27-.2,1.88-.19.17-.4.26-.58.34-.31.14-.5.22-.45.58,0,.03.03.06.06.06.07.01.14.02.21.02.36,0,.68-.17,1-.33.26-.13.52-.27.81-.31.24-.04.49-.06.75-.06,1.08,0,2.06.36,3,.71.62.23,1.21.45,1.8.55.29.05.57.08.83.08,1.2,0,2.12-.52,3.12-1.3.04-.03.03-.08.03-.09Z" style="fill: #1e1e1c;"/>
      <path d="M163.09,54.86c.15,0,.23-.07.27-.21.04-.17-.1-.64-.22-.77-.21-.21-.71-.23-1.06-.23h-.05s-.08.02-.11.05c-.03.03-.04.07-.03.11.08.49.8,1.05,1.21,1.05Z" style="fill: #1e1e1c;"/>
    </g>
    <g>
      <path d="M231.09,58.01c-2.6-1.75-5.29-3.56-6.27-6.67,0-.03-.03-.05-.06-.05h-.37s-.06.02-.07.06c-.36,2.43-2.59,4.35-4.38,5.89-.14.12-.27.23-.4.34,0,0-.01,0-.02.01-.12.06-.13.5-.11.67.25-.1,1.17-.77,1.74-1.19.42-.31.76-.56.89-.63l2.94-2.93s.11-.07.17-.07c.08,0,.15.04.19.1l3.46,4.68c.13.18.69.3,1.4.3.51,0,.99-.07,1.21-.17.03-.01.03-.04.04-.05,0-.03,0-.05-.03-.07l-.32-.22Z" style="fill: #1e1e1c;"/>
      <path d="M228.47,63.29c.02-.57-.18-1.17-.51-1.59-.14-.17-1.88-1.75-2.01-1.82-.08-.03-.13-.04-.15-.04-.02,0-.02,0-.02,0-.05.07.14.47.24.69.19.41.3.67.22.81-.03.05-.08.08-.14.08l-2.51.42s-.04,0-.06,0c-.13,0-.24-.07-.29-.19-.06-.12-.04-.25.04-.35.16-.2.35-.39.54-.58.23-.23.45-.45.58-.65.09-.14.13-.33.18-.52.05-.23.1-.44.23-.54.14-.1.36-.14.76-.14.16,0,.34,0,.53.01.2,0,.41.02.62.02.47,0,1.06-.04,1.4-.32.06-.05.07-.15.02-.22-.35-.43-.64-.63-.96-.63-.23,0-.46.1-.72.21-.25.11-.54.23-.88.29-.84.15-1.72.22-2.56.29-.72.06-1.46.12-2.18.23-.08.19-.09.33-.03.42.06.1.23.15.49.15.31,0,.69-.07,1.03-.13.3-.05.55-.1.73-.1.03,0,.06,0,.08,0,.04,0,.09,0,.12,0,.1,0,.2,0,.26.08.05.07.05.17,0,.33-.09.29-1.51,2.45-1.76,2.62-.08.05-.18.08-.28.08-.17,0-.36-.07-.52-.12-.14-.05-.26-.09-.35-.09-.06,0-.12.01-.14.16-.02.18.15.61.44.93.2.23.42.36.6.36.06,0,.11-.01.17-.04l4.74-1.53s.07-.02.11-.02c.06,0,.11.01.16.04.36.21.53.56.67.87.18.38.32.68.76.68.07,0,.15,0,.23-.02.08-.01.13-.08.14-.15Z" style="fill: #1e1e1c;"/>
      <path d="M222.88,56.86s.07,0,.21,0c.69,0,2.54-.17,2.89-.23.27-.05.42-.16.43-.31.01-.2-.2-.43-.48-.51-.02,0-.06-.01-.14-.01-.73,0-2.8.6-2.93.98,0,.02-.01.04.03.08,0,0,0,0,0,0Z" style="fill: #1e1e1c;"/>
    </g>
    <g>
      <path d="M211.46,61.43c-.04-.16-.05-.33-.05-.49,0-.21-.01-.4-.09-.56-.03-.06-.06-.1-.09-.1-.14,0-.4.53-.55.85-.08.16-.15.31-.22.43-.07.12-.19.19-.33.19-.09,0-.17-.03-.23-.08-1.87-1.56-3.17-3.74-3.56-5.98-.03-.19.09-.38.28-.42.21-.04.53-.07.87-.09.71-.05,1.6-.11,1.83-.41.05-.06.06-.13.04-.21-.07-.32-.26-.46-.61-.46-.38,0-.88.17-1.33.33-.4.14-.78.27-1.04.27-.16,0-.3-.11-.35-.27-.11-.4-.14-.81-.17-1.21-.05-.66-.1-1.29-.49-1.88-.04-.05-.1-.09-.17-.09h-.89c-.06,0-.12.03-.16.08s-.05.12-.03.18l.94,3.04c.03.09.02.2-.03.28-.05.09-.12.15-.22.18l-4.56,1.39c-.08.03-.14.11-.14.19v.38c0,.11.1.2.2.2.02,0,.04,0,.06,0,.15-.05.35-.12.56-.19.54-.19,1.14-.4,1.55-.4.43,0,.5.25.5.4v3.47c0,.14-.39.43-.39.43-.06.05-.14.07-.22.07-.1,0-.2-.04-.27-.11-.07-.07-.11-.17-.1-.27v-.17c.03-.71.05-1.44-.3-1.8-.16-.16-.38-.24-.67-.24h-.03c-.06,0-.11.03-.15.08-.04.05-.05.12-.03.18.03.1.06.2.09.3.27.88.6,1.98.21,2.51-.14.19-.37.29-.68.29-.03,0-.07,0-.1,0h0c-.13,0-.22.09-.22.2v.47c0,.06.02.12.06.15.16.11.47.18.59.18.67,0,1.99-1.01,3.16-1.9.17-.13.34-.26.5-.38.1-.08.08-.18.07-.22-.02-.07-.09-.14-.19-.14-.03,0-.06,0-.08.02-.11.05-.2.07-.28.07-.12,0-.27-.05-.32-.3-.17-.83.66-1.21,1.27-1.49.13-.06.25-.11.34-.16.06-.03.1-.09.1-.15,0-.07-.02-.13-.07-.17l-.17-.15s-.08-.05-.13-.05c-.02,0-.04,0-.06,0l-.67.21s-.07.02-.11.02c-.17,0-.32-.12-.36-.29l-.27-1.22c-.02-.1,0-.21.06-.3.06-.09.16-.14.26-.15l1.3-.14s.03,0,.05,0c.06,0,.12.01.16.04.34.22.58,1.01.78,1.71.09.3.17.56.24.71.93,2.1,2.09,3.66,3.88,5.22.04.03.09.05.14.05h1.29c.1,0,.19-.08.2-.18.07-.55-.07-.97-.23-1.4-.06-.16-.12-.33-.17-.51Z" style="fill: #1e1e1c;"/>
      <path d="M201.54,54.31s.03.03.05.03c.02,0,.04,0,.07,0,.66,0,2.07-.38,2.18-.63,0,0,0-.01,0-.03-.09-.21-.29-.32-.57-.32-.65,0-1.58.58-1.72.9,0,.02,0,.04,0,.05Z" style="fill: #1e1e1c;"/>
      <path d="M208.27,53.26c.13,0,.22-.07.26-.22.08-.27.05-.49-.07-.65-.18-.25-.61-.39-1.15-.39-.14,0-.28,0-.41.03-.02,0-.03.02-.04.02,0,0-.01.02,0,.04.12.38.96,1.17,1.42,1.17Z" style="fill: #1e1e1c;"/>
    </g>
  </g>
  <path d="M56.92,60.84c-13.31,16.81-39.49,14.88-50.32-3.55C-4.93,37.66,8.71,12.49,31.32,11.39c26.14-1.27,41.93,28.81,25.59,49.45Z" style="fill: #fffdfe;"/>
  <path d="M31.04,9.03c-14.17.67-26.53,11.04-30,24.7-6.11,24.07,15.54,45.83,39.64,40.13,12.07-2.86,21.79-12.64,24.45-24.77,4.72-21.57-12.21-41.09-34.09-40.06ZM56.92,60.84c-13.31,16.81-39.49,14.88-50.32-3.55C-4.93,37.66,8.71,12.49,31.32,11.39c26.14-1.27,41.93,28.81,25.59,49.45Z"/>
  <path d="M52.36,63.81c-16.69,14.65-43.04,6.38-48.03-15.27C-.87,25.94,21.02,6.35,42.88,14.21c21.01,7.55,26.28,34.85,9.48,49.6ZM31.88,14.03C9.59,14.98-2.84,40.53,10.65,58.58c12.12,16.22,37.19,14.32,46.84-3.41,10.29-18.92-4.19-42.06-25.61-41.14Z" style="fill: #8f8347;"/>
  <path d="M32.5,27.96c11.38-.41,18.49,12.57,11.86,21.91-5.67,7.98-17.4,7.88-22.91-.22-6.16-9.07.22-21.3,11.05-21.69Z" style="fill: #dc0526;"/>
  <path d="M32.1,64.76l1.63-.76c.27,0-.06.27-.14.35-.94.87-2.5,1.45-3.48,2.34-.59.45-1.26-.3-1.48-.82.11-.09,1.17.31,1.25-.31.03-.26-.08-1.55-.16-1.79s-.23-.34-.4-.5c.27-.31,1.06-.17,1.21.17.17.38-.1,1.94-.03,2.01l.93-.34c.14-.1-.03-.7-.03-.87-.01-.52.13-2.23-.24-2.53-.39-.32-1.59.48-2.01.49-.19,0-.87-.26-.73-.48l4.91-1.33c.08-.09-.45-2.08-.55-2.32-.15-.37-.45-.44-.49-.79.29-.14,1.21,0,1.38.25.29.41.3,2.49.49,2.63.43-.05,1.02-.12,1.39-.36.16-.1.23-.33.45-.31,2.93.93-.73,1.08-1.7,1.18.25,1.42.92,2.78,1.81,3.91.43.55,1.01,1.26,1.73,1.39.11-.12.21-.26.29-.41.04-.08.44-1.28.61-1.09.03.55-.04,1.15,0,1.7.02.3.29,1.16.17,1.35-.28.47-1.59-.54-1.87-.76-1.79-1.43-2.86-3.74-3.51-5.89l-1.86.48c.59.49.55.96.42,1.66.18-.12.42-.1.6-.19s.22-.28.47-.3c.23-.02.51.08.57.32-.05.31-1.41.5-1.65.69v1.21Z"/>
  <path d="M26.34,24.41c-.41.37-1.41,1.65-1.91,1.73-.7.12-2.24-.48-3.01-.66-.64-.15-1.31-.19-1.94-.38l1.57,2.15c.34-.06.45-.7.62-.82.27-.19,1.16-.53,1.07.09-.05.34-1.32.96-1.32,1.25.2.48,1.68,1.98,1.57,2.39-.13.48-.88.06-1.11-.14-.51-.45-.6-1.18-1.05-1.66-.17-.03-1.08,1.12-1.31,1.25-.16.09-.28.07-.45.07-.02-.13,0-.2.07-.32.16-.27,1.4-1.24,1.38-1.44l-1.44-1.99c.05,1.17-.08,2.34-.37,3.48-.12.48-.35,1.27-.59,1.7-.06.11-.14.25-.29.23.05-.58.26-1.14.34-1.71.21-1.52.14-3.01,0-4.53-.79.53-1.09,1.86-2.22,1.73l2.07-2.32c-.46-.53-.87-1.34-1.42-1.76-.18-.13-.44-.21-.58-.33-.08-.07-.09-.07,0-.14.25-.2,1-.46,1.31-.27.17.1.76,1.22.95,1.48.08.12.19.32.34.35.05-.01.65-.69.73-.8.16-.21.54-.94.66-1.01.21-.13,1.27-.41,1.22.04-.03.3-1.37,1.26-1.67,1.53-.12.11-.7.66-.68.75.02.1.25.37.39.38,1.38-.02,2.77.31,4.15.23,1-.06,1.97-.36,2.94-.56Z"/>
  <path d="M47.48,20.45c-.09.06-1.64-.3-1.92-.32-.42-.03.02.41.04.66.02.17-.15.63-.09.71.5.25.94.03,1.45.36.29.19,1,1.11.31,1.02-.45-.06-1.67-.81-2.02-.76l-.59,1.22c0,.1,1.42.58,1.62.59.15,0,.28-.08.48-.07.47.04,1.35.96,1.36,1.42.01.38-.17.35-.47.26-.65-.21-1.72-.93-2.42-1.25-.27-.12-.55-.23-.82-.35-.71,1.1-1.24,2.37-2.12,3.36-.23.26-.95,1.02-1.32.77l-.83-2.19c.11-.11,1.08.83,1.45.66.34-.15,1.94-2.68,1.87-2.91-.42-.27-.93-.4-1.4-.55-.72-.22-1.96-.38-2.55-.64-.27-.12-.53-.41-.48-.73l4.74,1.32.6-1.25c-.47-.13-.92-.31-1.39-.45-.56-.17-1.33-.08-1.32-.87l2.88.82c.12-.01.41-1.16.12-1.31l-1.7-.36-.26-.4c.4.03.82.18,1.21.21.47.04,2.18.06,2.55-.09.17-.07.23-.3.42-.25.33.37.85.83.59,1.37Z"/>
  <path d="M9.5,34.87c.11-.29.38-.42.52-.69.36-.7.89-2.45,1.11-3.26.05-.19,0-.39.07-.56.03-.06.55-.43.63-.48.63-.32.89.25,1.35.57,1.34.95,2.9,1.75,4.22,2.72.46.34.94.73.83,1.37l-.1.1c-.59.06-1.16-.27-1.65.22-.21.22-.9,1.77-.93,2.06-.02.22.31.31.19.67-.41.37-.93.14-1.35-.08-1.26-.64-2.88-2.09-4.12-2.54-.23-.08-.51-.11-.76-.11ZM16.78,34.18c.11-.12-.68-.62-.8-.69-1.26-.85-2.61-1.57-3.85-2.46l-.45.03-1.14,3.19,2.01,1.11c.03-.34.28-.7.33-1.02.05-.3-.07-.54.06-.84.11-.27.47-.62.79-.56.02.94-.52,1.8-.81,2.67l2.13,1.28c.12-.5.39-.95.54-1.44.07-.23.06-.55.12-.71.09-.2.84-.53,1.07-.56Z"/>
  <path d="M56.28,29.87c-.54.38-1.14-.14-1.72-.02.27.55.99.65,1.35,1.08.24.29.51.8.39,1.17-.12.11-.87-.58-1.01-.7-.5-.46-.89-1.05-1.46-1.45-.26.4-.51.54-1.01.48.32.53,1.21.55,1.31,1.22.12.77-.25.65-.72,1-.63.47-2.04,2.02-2.77,2.01-.1,0-.21-.04-.3-.08-.06-.43.18-.79,0-1.21-.16-.37-1.08-.88-1.47-1.04-.01-.96.98-1.33,1.6-1.86.19-.17,1.04-1.15,1.14-1.14.12.22.44.71.71.75.15.02.96-.44.89-.61-.09-.21-1.99-1.3-1.63-1.66.14-.02.25.01.37.08.31.17.95.8,1.3,1.06.28.21.55.44.86.6.09.01,1.15-.26,1.28-.31.21-.08.51-.42.71-.37.29.07.25.79.17,1.02ZM53.3,31.67c.08-.24-.12-.37-.26-.51-.19-.19-1.13-.94-1.35-.93l-.45.38c.41.45,1.34.55,1.32,1.28-.23.22-1.41-.8-1.64-.96l-.51.48c.43.17,1.25.54,1.4.99.03.09.1.15-.01.22-.38.24-1.27-.91-1.64-.94-.19-.02-.51.32-.65.45.53.46,1.43.72,1.56,1.49l2.24-1.95Z"/>
  <path d="M20.81,59.22l-1.74,2.9c.73.03,1.53,0,2.25.07.13.01.37.03.31.21-.5.11-1.02.14-1.53.24-.46.09-1.91.55-2.24.44l-.08-.05c-.1-1.03.85-1.76,1.4-2.56.42-.62,2.4-3.72,2.5-4.22.03-.14.02-.29.02-.43.31-.06.48.24.71.36.66.34,1.98.66,2.74.87.5.14.66-.02,1.01.44.13.17.35.47.22.69l-2.37,2.13c-.31-.06-.49-.32-.79-.43-.72-.28-1.66-.39-2.41-.65ZM25.24,57.55l-2.8-.83c-.08.02-.47.62-.43.76.05.07.78.26.91.27.51.05.69-.2,1.1.35.26.35-.03.37-.34.34-.53-.04-1.51-.55-1.95-.48-.22.03-.36.6-.59.73,0,.21,2.26.68,2.58.79l.32-.3,1.18-1.63Z"/>
  <path d="M44.79,63.58l2.49-2.39c.02-.06-1.15-.35-1.18-.59.36-.06.71-.08,1.08-.07.34.01,1.04.08,1.35.18.43.14,1.04.68,1.03,1.17-.17.54-1.58-.33-1.89-.43-1.21,1.07-2.12,2.41-3.14,3.65-.5.26-1.09-.23-1.48-.51.28-.07,1.13-.28,1.22-.58s.06-1.47.03-1.84c-.01-.14-.16-1.04-.21-1.08l-1.68,1.4c-.23.11-.5.07-.67-.12.69-.56,1.31-1.19,1.98-1.77.63-.55,1.36-.99,1.9-1.63.35-.41.19-.66.87-.73.3-.03,1.23-.04.8.38l-2.56,1.87c.8.46.49.5.36,1.13s-.22,1.31-.29,1.96Z"/>
  <path d="M42.51,55.94c.05.05,1.22.3,1.43.34,1.91.43,3.76.67,5.7.23,0,.05,0,.11-.01.16-.08.22-1.64,1.36-1.89,1.37l-5.37-1.74c-.06,1.85-.52,3.89-1.33,5.57-.17.36-.33.73-.68.95.36-1.56.94-3.13,1.04-4.75.03-.47.07-1.51,0-1.94-.04-.27-.25-.29-.31-.38-.31-.51.91-.59,1.28-.17.1.12.09.3.16.36Z"/>
  <path d="M49.69,27.68c.13.11.46.73.44.91-.07.5-1.54.27-1.94.49l-.07.14c.24.38.17.92-.26,1.13-.15.07-.89.19-.85.46,1.33,1.58,2.1,3.54,3.34,5.2.53.71,1.18,1.29,1.72,1.99-.68-.25-2.37-.93-2.77-1.49-.34-.48-.81-1.9-1.07-2.53-.61-1.44-.9-2.61-2.3-3.52-.13-.09-.31-.09-.43-.19-.2-.16-.37-.62-.11-.79l1.24.82c.09,0,.83-.42.88-.5.12-.16.04-.36.08-.55.11-.5,1.08-.76,1.44-1.06.05-.21-.73-.29-.9-.42-.07-.05-.4-.52-.35-.59.41.08.77.3,1.17.39.23.05.58-.02.75.12Z"/>
  <path d="M34.23,21.72c.06.07.09.19.08.28-.08.3-1.67.3-2,.39.29.73,0,1.45.07,2.22.85-.17,1.94-.19,2.75-.47.19-.07.23-.23.54-.23.27,0,1.12.39,1.14.67-.01.16-.3.27-.45.3-.97.17-2.12.11-3.11.21-1.53.16-3.03.51-4.51.9-.3.03-.65-.09-.86-.31l3.8-.94c.1-.15-.09-1.89-.23-2.07-.17-.21-.76.2-1.04.2-.09,0-.74-.15-.52-.3.16-.11.7-.28.9-.35.53-.16,1.13-.2,1.63-.38.25-.09.61-.39.77-.42.18-.03.93.17,1.05.29Z"/>
  <path d="M31.94,16.38c.21.22.04.9-.05,1.16.44-.08.88-.15,1.32-.24.5-.1,1.79-.55,2.18-.53.27.02,1.1.63,1.14.89.05.34-.5.32-.73.42-.45.2-.84.6-1.3.78-.1-.04,0-.13.02-.19.16-.37.34-.73.5-1.1l-.24-.11c-1.85.39-4,.65-5.81,1.2-.73.22-.46.29-.56.9-.12.72-.71.98-.87.21s.64-1.16.4-2.03c.33-.03.48.55.65.55l2.67-.62s-.14-.74-.17-.83c-.1-.25-.43-.38-.38-.69.31-.02,1.01,0,1.23.23Z"/>
  <path d="M22.46,61.71c.29,1.34.89,2.71,1.71,3.81.19.25.85.9.93,1.08.04.1-.02.11-.1.11-.2-.01-1.77-.8-2.02-.96-.38-.24-.47-.31-.56-.76-.22-1.06-.22-2.22-.57-3.24l-.55-.21.56-.21c-.1-.56-.5-1.08-.52-1.63.5.36.79.95.98,1.53.17.05.93-.12,1.12-.19.29-.11.67-.59.92-.41.18.13.1.94-.11,1.08h-1.77Z"/>
  <path d="M31.75,18.17c1.35-.07.77,1.06.91,1.9.14.9,1.49-.08,1.97-.03.27.02.69.23.49.56-.18.29-1.78.37-2.14.34-.3-.03-.64-.1-.8-.38l-.43-2.38Z"/>
  <path d="M28.91,21.98c.42-.74,1.25-1.79,1.25-2.67,0-.28-.3-.6.02-.75.18-.08.87.32.92.5.13.42-.77,1.78-1.08,2.12-.14.15-.96.92-1.11.79Z"/>
  <path d="M44.98,57.76s.03.2,0,.25c-.03.06-.9.64-1.06.78-.45.38-.99,1.19-1.63.97.45-.51.98-.94,1.37-1.5.08-.11.18-.45.24-.49.15-.12.97-.19,1.08,0Z"/>
  <path d="M34.85,57.84c.66-.19,1.93.3,1.52,1.17-.05.08-.12.07-.2.07-.32-.01-1.35-.77-1.4-1.1-.05-.06.04-.12.09-.13Z"/>
  <path d="M30.11,59.81c-.06-.07-.1-.16-.09-.25.25-.05.58-.09.81-.2.56-.25.74-.87,1.47-.11.04.13,0,.16-.11.22-.14.08-1.28.45-1.46.48-.21.04-.46.03-.62-.14Z"/>
  <path d="M24.06,54.71c.07-.08.46.34.52.41.24.27.56.67.51,1.06-.11.8-.72.39-.89-.12-.06-.17-.2-1.29-.13-1.36Z"/>
  <path d="M51.44,25.45c.13.36.53.73.49,1.14-.02.21-.38.74-.65.67-.08-.2-.23-.44-.23-.66,0-.13.19-1.3.4-1.14Z"/>
  <path d="M54.01,27.25l.27.99c-.99,1.77-1.14-.46-.27-.99Z"/>
  <g>
    <path d="M33.55,0c-.55.49-1.19.9-1.83,1.26-.35.2-.8.33-1.09.61.33.06.48-.22.74-.34.71-.33,1.21-.36,1.92-.5.51-.1,1.34-.4,1.8-.18.06.03.56.46.61.52.33.41.07.48.01.83-.21,1.31.24,3.65-.37,4.69-.07.12-.53.59-.65.6-.4.03-.37-.86-.85-.96-.26-.05-.92.12-1.23.13s-.67.01-.97,0c-.09,0-.28-.09-.31-.07-.06.05-.22.76-.7.31-.84-.78.21-3.35-.26-4.52-.09-.22-.35-.42-.28-.66.06-.22.66-.46.89-.64.35-.28.7-.72.97-1.08h1.59ZM34.45,1.6c-.7-.26-1.42.16-2.06.32-.29.07-1.13.06-1.23.23-.07.11.32.66.36.84.35.08,1.34-.53,1.73-.56.2-.01.76.16.79.38.08.53-.56.48-.9.62-.51.21-1.05.54-1.46.9.68.01,1.63-.67,2.24-.18.11.09.15.31.11.44-.06.21-.78.42-.98.54-.38.23-.82.59-1.15.89.41-.11.95-.08,1.33-.23.18-.07.31-.24.44-.26.22-.03.49.15.72.14l.06-4.08ZM32.24,3.4h-.75c-.11.24-.08.51-.08.76.04.05.57-.4.62-.45.09-.08.22-.17.21-.31ZM31.34,4.78v1.11c.46-.28.91-.62,1.25-1.04-.44.11-.82.09-1.25-.07Z"/>
    <path d="M44.72,1.52c.21-.02.45.03.65,0,.28-.04.4-.32.7-.14s.52.71.42,1.05c-.12.38-.67.3-.73.69.27-.01.95.06,1.14-.14.06-.06.37-.9.38-1.01.02-.3-.26-.36-.2-.54.5-.62,1.42.08,1.21.72-.06.17-.32.32-.31.52,0,.23.59.52.76.66.07-.31-.58-.81-.31-1.04.34-.28,1.11.26,1.23.57.17.43-.05,1.1-.57.99l-.35-.45c.08.89-1.12.47-1.46.66-.04.02-.44.67-.46.73-.06.23.69.71.91.83l.24-.83c.17-.22.13,1.07.14,1.14.03.37.39,1.5-.43,1.34-.69-.14-.79-1.38-1.34-1.78-.69.36-1.41.59-2.2.47-.19-.03-.51-.11-.35-.34,1.2-.03,2.11-.7,2.66-1.73-.19.02-.34-.01-.52-.07-.3-.09-.54-.43-.79-.32-.84.7-2.21,1.99-3.37,1.96-1.08-.03.11-.99.16-1.22.03-.15-.06-.26-.05-.39.01-.18.07-.34.07-.56,0-.19-.1-.35-.07-.55.09-.71,1.51-.96,2.04-1.5.31-.31.35-1.01.8-.8.47.23-.04,1.04,0,1.07ZM44.21,2.52c.08.09.18.34.33.32l.67-.65c-.09-.14-.11-.06-.19-.06-.35.02-.69.17-1.05.16.03.13.18.16.25.23ZM43.47,2.7c-.08-.07-1.19.47-.97.83.4-.17,1.22.15,1.32-.35h-.69s.35-.49.35-.49ZM43.26,3.95c-.48-.04-1.07.14-1.11.69l.37-.15.74-.54Z"/>
    <path d="M12.69,13.8c-1.07-.48-1.57-1.71-2.32-2.56-.41.33-.18.81-.88.68s-2.19-1.31-2.34-2.06l.76.11.61-1.13c0-.1-.7-1.09-.81-1.17-.29-.21-1-.07-.66-.65.24-.41,1.01-.55,1.41-.31.34.2.45,1.14.87,1.41.67-.88,1.38-1.6,2.43-.69-.03.6.27,1.33.17,1.9-.05.3-.76,1.23-.75,1.31.67.98,1.5,1.9,1.52,3.17ZM11.02,9.5c-.1-.53-.2-1.09-.48-1.56l-.16-.02-.73.71.2.32c.2,0,.27-.23.47-.27.88-.16-.2.92.19,1.1.12.05.11-.13.22-.2.08-.05.21-.06.3-.08ZM9.08,9.36c-.07-.05-.64.49-.66.62l.35.42c.24-.36.59-.59.31-1.04ZM9.54,10.27c-.16.03-.37.45-.14.61.52.37.47-.67.14-.61Z"/>
    <path d="M20.73,2.22c.1.11.95-.87,1.02-.89.37-.11.97.11.84.56-.11.36-1.6.75-1.93,1.05l-.07.59c.61-.12.86-.7,1.51-.51.69.2.53.77.67,1.27.12.46.79,2.19.25,2.46-.34.17-.62-.34-.85-.3-.06,0-1.03.43-1.12.49-.25.16-.27.45-.65.28-.53-.23-.5-1.33-.71-1.86-.11-.28-.25-.45-.41-.7l.61-1.06c-.08-.08-.56.46-.67.54-.45.33-.87.55-1.37.15-.11-.09-.33-.27-.21-.42.34.05.58-.08.86-.25.85-.51,1.48-1.07,1.77-2.04.11-.36.32-.76-.1-.94.25-.44,1.23-.23,1.32.21.11.6-.64.83-.76,1.35ZM21.91,4.92l-.35-1.25-1.59.66c-.04.08.29.28.31.29.33.04.91-.71,1.32-.4.25.35-.73.65-.66,1.04l.97-.35ZM20.8,4.99l-.42.07.07.35.35-.42ZM22.05,5.41c-.11-.02-.19.05-.27.11-.11.07-.78.78-.7.86.46-.04.62-.55,1.04-.63l-.07-.34ZM21.08,5.82l-.42.07.17.35.24-.41Z"/>
    <path d="M19,7.97c.56-.08,1.1-.28,1.65-.39.93-.2,1.89-.27,2.78-.61.65-.25.82-.62,1.61-.36.98.32.22,1.06-.33,1.37-1.29.73-3.82.08-5.55.69-.3.1-1.17.65-1.37.62-.26-.04-.53-.45-.47-.71.03-.13.87-.14.95-.74.07-.5-.97-.98-.87-1.59-.43.04-.83-.05-1.05-.44-.1-.18-.23-.45-.02-.6.6.2.85-.5,1.53-.16.6.3.22.66.22,1.09,0,.91,1.36.78.91,1.84Z"/>
    <path d="M6.52,12.65s-.08-.18-.1-.17c-.42.54-1.17.96-1.7.31.47-.33.8-.92,1.08-1.42.21-.4.19-.93.77-.95.83-.03.66.72.79,1.29.26-.18.14-.6.31-.83.22.34.13.85.17,1.21.12.92.96,1.49,1.44,2.23.2.31.69,1.15.08,1.24l-1.8-1.22c.03.39-.09.81-.33,1.11-.38.08-.92-.7-.84-1.06.02-.09.13-.21.13-.22,0-.44.06-1.12,0-1.53ZM8.25,14.28l-.08-.3-.4-.53c-.18.44.06.73.48.83Z"/>
    <path d="M59.41,10.54c.25.54.66.75.63,1.42-.02.4-.43,1.03-.89.81-.39-.18-.13-.84-.27-.93-.82-.13-1.64-.42-2.44-.6-.3-.07-.52.1-.74-.23-.19-.28-.11-.4.1-.64.31-.36.36-.16.65-.2.21-.03,1.31-.18,1.36-.31-.54-.22-.87-.79-.97-1.35.35-.03.6.25.9.38.54.22,1.77.73,2.29.83.49.1,1.1-.1,1.29.59.32,1.22-1.35.23-1.91.21ZM57.4,10.75c.28.02,1.48.66,1.59.3.04-.11-.06-.46-.18-.5-.24-.08-1.21-.03-1.41.2Z"/>
    <path d="M41.32,5.55c.1.32.07.66.42.8.57.23,1.29-.09,1.89.05.41.09.68.73.99.75.24.01.51-.12.76-.14.56-.04,1.26,0,1.77.24.67.31,1.23,1.3.92,2.03-.26.62-.75,0-1.08-.14-.13-.06-.85-.23-.88-.27v-.2c.25,0,.55.02.76-.17-.47-.68-.71-1.24-1.64-.88-.62.23-.81.98-1.57.22-.28-.28-.34-.68-.52-.91-.33-.43-1.47.59-1.72.63-.43.07-.94-.68-.92-1.06.02-.25.61-1.09.83-.94Z"/>
    <path d="M54.98,7.28c.04.17-.08.36-.06.51s.25.36.3.6c.08.4-.04.52-.27.81l-1.43,1.2c.92-.12,1.71-.67,2.54-1.03.06-.03.18-.15.23-.05-.7.72-1.58,1.34-2.43,1.87-.24.15-1.76,1.01-1.9,1-.28,0-.33-.2-.31-.44.05-.8,1.05-1.35,1.56-1.84.17-.16.7-.7.8-.86.19-.32-.07-.43-.08-.7,0-.44.58-1.09,1.04-1.08Z"/>
    <path d="M58.14,12.07c.37-.08.64.8.57,1.12-.11.47-1.24,1.03-1.24,1.4.06.48.66.31.96.43.63.26.59,1.43-.1,1.46-.4.01-1.38-.8-1.56-1.18-.54-1.19.75-1.69,1.11-2.52.08-.19.08-.67.26-.71Z"/>
    <path d="M6.36,8.9c.13.15.22.45.08.63-.39.34-.68.82-1.03,1.19-.06.06-.28.31-.35.24.14-.4.26-.81.2-1.24-.24-.17-.57.2-.76.1-.46-.35.34-1.06.67-1.13s.95-.04,1.18.21Z"/>
    <path d="M54.49,11.99v.28c.56-.07.87-.65,1.08-1.11.15-.05.31.14.34.27.28.92-1.46,2.39-2.21,1.8-.38-.3.56-1.02.79-1.24Z"/>
    <path d="M55.32,7.28c.22-.01.85-.07.98-.24.27-.35-.4-.86.03-.94.83-.15,1.49.84,1.06,1.62s-.89.03-1.31-.13c-.26-.1-.63-.03-.76-.31Z"/>
    <path d="M57.04,11.81c.12.12.17.47.16.64-.04.39-1.02,1.73-1.37,1.83-.08.02-.15.02-.23-.02-.87-1.06,1.12-1.48.97-2.53.14,0,.36-.01.47.09Z"/>
    <path d="M58.86,8.6l.83.07-.32-.69c.83-.71,2.12,1.21,1.2,1.61-.35.15-.75-.3-1.05-.51-.21-.14-.53-.18-.66-.48Z"/>
    <path d="M16.08,4.58c-.04-.28.23-.5.13-.79-.06-.17-.72-.44-.75-.7.02-.1.87-.31,1.01-.32.68-.02,1.36.74.58,1.21l-.97.59Z"/>
    <path d="M19.97,1.11c.06.06-.21.69-.25.83-.03.11.05.22.01.35-.2.68-1.44.28-1.2-.78.14-.62.48.15.71.14l.73-.53Z"/>
  </g>
  <path d="M315.41,29.93c-8.4-22.29-36.78-28.86-54.09-12.24-19.28,18.51-9.77,50.83,16.19,56.22,25.44,5.28,47.1-19.57,37.9-43.98ZM309.44,59.68c-12.24,16.77-37.14,17.1-49.8.62-15.29-19.9-1.55-48.63,23.26-49.78,25.71-1.19,41.84,28.18,26.53,49.15Z"/>
  <path d="M309.44,59.68c-12.24,16.77-37.14,17.1-49.8.62-15.29-19.9-1.55-48.63,23.26-49.78,25.71-1.19,41.84,28.18,26.53,49.15Z" style="fill: #fffdfe;"/>
  <path d="M301.86,4.04l.74,4.14c.17.04.12-.02.16-.09.55-.85.91-1.91,1.44-2.79l1.1.48-2.48,5.02c-.05.04-1.06-.42-1.06-.65l-.76-4.22-1.6,3.13-1.1-.55,2.53-4.9,1.03.44Z" style="fill: #f51520;"/>
  <path d="M259.96,10.65l2.04,2.87c-.15.13-.85.77-1.01.67l-3.21-4.45c0-.15.75-.69.91-.7l4.05,1.17-1.88-2.67.02-.17.88-.65,3.32,4.55c-.26.15-.68.63-.97.61l-4.14-1.22Z" style="fill: #f51520;"/>
  <polygon points="289.24 .47 291.3 4.17 291.89 .82 293.02 1.03 292.25 6.57 291.19 6.35 289 2.49 288.45 5.91 287.3 5.76 288.1 .32 289.24 .47" style="fill: #f51520;"/>
  <path d="M272.91,1.64c4.19-.65,4.78,5.4.78,5.8s-4.41-5.23-.78-5.8ZM272.16,3.25c-1.44,1.44.51,4.03,2.27,2.74,1.97-1.45-.46-4.54-2.27-2.74Z" style="fill: #f51520;"/>
  <path d="M309.67,13.49c-.1.71-.13,1.44-.22,2.15-.01.11,0,.18-.11.25l-1.05-.93c-.06-.46.39-1.88.24-2.2-.05-.12-.67-.61-.79-.58l-1.19,1.3-.9-.69,3.68-4.26c.16,0,2.22,1.81,2.41,2.04,1.18,1.5-.3,3.46-2.08,2.91ZM309.5,10.15l-.99,1.12c0,.08,1.03.92,1.19,1,.68.35,1.4-.13,1.2-.91-.07-.26-1.22-1.24-1.39-1.21Z" style="fill: #f51520;"/>
  <path d="M267.08,4.27c1.95.01,3.22,2.08,2.49,3.86-.6,1.45-2.26,1.82-3.53,2.51l-2.43-4.96c.04-.11.14-.15.23-.21.66-.44,2.46-1.2,3.23-1.2ZM265.21,5.99c.1.39,1.24,2.93,1.38,3.02.22.14,1.34-.52,1.53-.73.76-.84.35-2.34-.68-2.74-.83-.33-1.48.16-2.23.46Z" style="fill: #f51520;"/>
  <path d="M254.85,15.46l-1.59-1.29.83-.9,4.27,3.53-.77.9-1.81-1.45-1.41,1.72c-.02.27,1.6,1.31,1.66,1.53.05.17-.62.79-.76.97l-4.26-3.61.76-.9,1.67,1.31,1.4-1.6.03-.21Z" style="fill: #f51520;"/>
  <polygon points="299.1 2.78 298.77 3.81 295.82 2.93 295.53 4.02 298.08 4.82 297.79 5.84 295.21 5.04 294.87 6.16 297.71 7.08 297.43 8.14 293.34 6.86 295.02 1.55 299.1 2.78" style="fill: #f51520;"/>
  <path d="M318.23,17.64c.12.2.7.92.59,1.09-.79.53-1.66.96-2.44,1.5-.67.46-1.33.96-.8,1.88.48.82,1.19.69,1.91.32.4-.21,2.48-1.66,2.64-1.66.19,0,.59.77.69.98-1.23.78-2.43,1.8-3.83,2.22-1.73.2-3.26-1.77-2.66-3.38.46-1.23,2.89-2.13,3.9-2.94Z" style="fill: #f51520;"/>
  <path d="M250.85,19.82c-.61.09-1.73.95-1.37,1.62.41.78,1.48-.55,1.84-.82.78-.59,1.55-.84,2.33-.08,1.46,1.42-.41,3.87-2.08,4.01l-.22-1.09c.68.03,2.23-1.38,1.49-1.97-.59-.48-1.54.85-2.06,1.15-.76.45-1.63.4-2.17-.36-.97-1.35.44-3.21,1.82-3.55l.4,1.08Z" style="fill: #f51520;"/>
  <path d="M313.9,15.82l2.58-.42c.11.1.96.97.85,1.07l-3.79.62-1.78,1.49c-.16-.16-.81-.78-.76-.97l1.63-1.44,1.1-3.71c.09-.12.07-.05.15,0,.17.11.83.79.84.99l-.8,2.36Z" style="fill: #f51520;"/>
  <path d="M283.21.16c0,.57.03,1.15.07,1.71.07.94.42,2.33-.03,3.17-.62,1.16-2.74,1.21-3.52.18l.67-.91c.41.41.98.73,1.52.35.38-.26.28-.84.27-1.27-.02-.75-.18-1.57-.22-2.33-.01-.28,0-.56,0-.84l1.24-.07Z" style="fill: #f51520;"/>
  <path d="M256.22,11.09c.11-.03.18.02.24.1l3.61,3.83v.22s-.8.73-.8.73l-3.79-3.93c-.16-.17.68-.92.75-.94Z" style="fill: #f51520;"/>
  <path d="M286.05,5.77h-1.24l.15-5.61h1.13l.1.12c-.05,1.83-.16,3.65-.13,5.49Z" style="fill: #f51520;"/>
  <path d="M295.72,29.76c8.4,8.12,5.73,21.97-4.83,26.68-13.59,6.06-27.69-8.16-21.52-21.72,4.69-10.3,18.15-12.88,26.34-4.97Z" style="fill: #f51520;"/>
  <path d="M284,14.45l2.56,7.2,1.75-6.99c1.06.3,2.55.41,3.53.87,1.91.89,1.02,4.18-1.06,4.08.65.86.8,1.96,1.02,2.98l5.25-4.99c.14-.07.96.49,1.16.59l-1.46,7.97-1.24-.63.34-1.85-1.99-1.15c-.09-.04-.14.01-.2.06-.24.16-1.02,1.13-1.17,1.16-.65-.32-1.27-.59-1.98-.73-.38-.9-.42-2.33-.88-3.17-.22-.4-.68-.46-1.07-.61l-.77,3.13c-.82-.19-1.62-.54-2.48-.29l-.63-1.74-2.5.07-.45,1.73c-.78-.11-1.4.28-2.12.36l-2.75-2.83c-.02.43-.51,1.11-.51,1.49,0,.5.62,1.63.72,2.19l-1.23.44-2.32-7.32,1.16-.34,1.09,3.1,1.38-3.88,1.61-.48-1.3,3.45,3.08,3.1,2.04-6.92,1.41-.06ZM289.26,16.18l-.41,1.82c.83.2,2.42,1,2.65-.35s-1.31-1.14-2.24-1.48ZM284.23,19.02l-.95-2.77-.66,2.84,1.6-.07ZM296.84,19.53l-2.11,2.04,1.46.73.66-2.77Z"/>
  <path d="M267.76,23.39l3.13,3.93c-.68.39-1.24,1.01-1.65,1.68l-1.84-.58-1.38,1.99,1.13,1.46-.82,1.13-4.83-6.52.81-1.11,7.33,2.38-4.52-5.64c0-.13.88-.85,1.04-.83l5.01,2.32-3.13-3.9.91-.76,4.84,5.92-1.04.84-5.01-2.32ZM266.15,27.91l-2.77-.95,1.79,2.33c.1.03.12-.06.17-.12.11-.12.71-.93.77-1.05.04-.07.05-.13.04-.22Z"/>
  <path d="M265.57,35.27c.13.19-.43,1.07-.49,1.29-.05.18-.06,1.06-.1,1.1l-1.82.33-.37,2.4,1.72.77-.11,1.31-7.42-3.21.18-1.38,7.54-1.52-6.71-2.69c.83-1.72,1.06-4.39,3.65-3.75,1.32.32,2.23,1.43,1.87,2.82-.07.26-.63,1.37-.53,1.52l2.59,1.02ZM261.71,33.73c.32-.82,1.04-2.11-.24-2.49s-1.48.85-1.72,1.76l1.96.73ZM261.78,38.25c-.83.18-1.86.22-2.65.44-.08.02-.18.03-.19.14l2.59,1.09c.07-.05.09-.09.11-.18.08-.46.1-1.02.15-1.49Z"/>
  <path d="M283.14,64.68c1.45.64.91,3.59-.56,3.84-1.21.21-2.79-.35-4.03-.35l1.02-7.61c1.02.21,2.21.17,3.21.44,1.74.47,1.68,2.75.36,3.68ZM280.37,63.73c.67,0,2.22.59,2.45-.36.37-1.54-1.22-1.2-2.23-1.39l-.22,1.74ZM279.93,67.01c1.06.02,2.78.86,2.82-.85.03-1.26-1.71-.92-2.52-1.19l-.29,2.04Z"/>
  <path d="M265.79,56.52c0,.13,0,.26-.02.38-.16.8-.92,2.29-1.35,3.02-.04.06.02.12-.12.09l-.89-1.13c.24-.74,1.55-2.64,1.42-3.33-.03-.14-.35-.67-.47-.7l-.17.03-2.37,1.77-.75-.97,6.21-4.55c.68,1.13,1.82,2.09,2.15,3.39.02,1.7-2.19,3.11-3.64,2ZM266.86,52.96l-1.5,1.12c.36.39.99,1.63,1.56,1.63.42,0,1.14-.59,1.13-1.04-.01-.31-1-1.75-1.19-1.71Z"/>
  <path d="M310.54,33.51c.5,2.41,1.49,4.46-1.44,5.59-1.92.74-4.79.96-5.52-1.44-.09-.29-.61-2.43-.54-2.54l7.5-1.61ZM309.52,35.05l-4.95,1.02c.2.52.23,1.55.66,1.92.77.67,3.03.19,3.84-.31,1.11-.68.73-1.58.45-2.63Z"/>
  <path d="M304.52,45.36c-.39-.39-.7-.99-.75-1.54-.51-5.1,9.68-4.12,7.76.84-.95,2.46-5.38,2.3-7.01.7ZM307.03,41.76c-1,.11-2.08.72-1.92,1.87.25,1.78,4.53,2.27,5.16.49.7-1.96-1.79-2.52-3.24-2.37Z"/>
  <path d="M275.18,59.09c1.41-.19,2.7.64,3.04,2.02.63,2.51-1.76,6.74-4.75,5.47-3.29-1.39-1.09-7.11,1.71-7.49ZM275.32,60.4c-1.55.25-3.08,3.87-1.54,4.85,1.93,1.22,3.78-2.56,3.1-4.04-.26-.57-.96-.9-1.57-.8Z"/>
  <path d="M296.91,56.6l-.33,3.64,4.48,2.8c-.27.14-1.21.88-1.46.81l-3.2-2.16-.21,1.55,1.22,2.06-1.08.69-4.01-6.59,1.03-.59,1.82,2.81.36-4.12.13-.17,1.27-.74Z"/>
  <path d="M305.73,29.94c-.26.01-.98.75-1.16.65l-1.73-2.53-1.69,1.2,1.87,2.78c.02.18-.8.61-.97.75l-2.74-3.93,6.41-4.3,2.55,3.89-.98.69-1.9-2.76c-.07-.02-1.18.7-1.3.81-.05.05-.13.06-.11.16l1.74,2.6Z"/>
  <path d="M302.02,62.2l-3.9-6.91c-.03-.2.72-.86.89-1.01l7.23,3.38-.91.98-1.6-.71c-.2.24-1.66,1.65-1.62,1.81l.91,1.49c-.17.11-.85,1.1-1.01.98ZM302.53,57.25l-2.62-1.24,1.5,2.48c.09.02.13-.06.18-.11.08-.06.81-.86.87-.95.04-.06.1-.07.07-.18Z"/>
  <path d="M289.77,60.38l.8,5.57c.06,1.44-.67,2.45-2.15,2.58-1.97.18-2.53-.98-2.86-2.68-.3-1.56-.45-3.17-.68-4.75.24.09,1.1-.24,1.21-.08.29,1.52.39,3.09.71,4.6.21.95.44,1.68,1.61,1.51.33-.05.72-.31.81-.65.1-1.95-.54-3.9-.69-5.85l.12-.11,1.12-.16Z"/>
  <path d="M270.16,58.93l2.88-1.38c.34-.02.75.6,1.08.72v.15s-4.4,2.08-4.4,2.08l-2.15,2.43-.91-.82,2.07-2.38,1.06-4.88,1.15.92-.79,3.16Z"/>
  <path d="M303.76,24.12l-1.48-1.16-4.2,4.62-1.02-.81,4.3-4.73-1.38-1.25.84-.97,3.65,3.28c.15.32-.66.68-.7,1.02Z"/>
  <path d="M262.29,45.53c1.46.02,1.83-1.67.18-1.6l-5.43.66-.14-1.19.18-.12c1.69-.06,3.43-.49,5.1-.58,1.31-.07,2.58.2,2.72,1.72.08.87-.21,1.51-.99,1.91-.19.1-.99.38-1.16.37-.22,0-.42-.94-.47-1.16Z"/>
  <path d="M306.97,56.45l-6.55-4.01c-.08-.14.49-.86.57-1.05l6.53,3.97.02.1-.58.99Z"/>
  <path d="M293.63,63.3l.44,1.38c-.66.13-1.42.63-2.04.77-.08.02-.14.07-.22,0l-.42-1.34,2.25-.81Z"/>
</svg>