<?xml version="1.0" encoding="UTF-8"?>
<svg id="Capa_1" xmlns="http://www.w3.org/2000/svg" version="1.1" viewBox="0 0 1080 1080">
  <!-- Generator: Adobe Illustrator 29.0.0, SVG Export Plug-In . SVG Version: 2.1.0 Build 186)  -->
  <defs>
    <style>
      .st0 {
        fill: #fff;
      }
    </style>
  </defs>
  <g>
    <path class="st0" d="M315.9,875.8v-57.7l-17.5,40.6h-15.3l-17.5-40.6v57.7h-28.7v-109.6h31.4l22.5,51.6,22.7-51.6h31.2v109.6h-28.7Z"/>
    <path class="st0" d="M362.9,875.8v-109.6h28.7v109.6h-28.7Z"/>
    <path class="st0" d="M438.6,822v53.9h-28.7v-109.6h22.4l42,55.7v-55.7h28.7v109.6h-22.8l-41.5-53.9Z"/>
    <path class="st0" d="M543.4,766.2h32.1l33.3,109.6h-29.2l-5.4-21.5h-29.5l-5.4,21.5h-29.3l33.4-109.6ZM569.2,834.3l-9.7-38.6-9.7,38.6h19.4Z"/>
    <path class="st0" d="M615.7,875.8v-109.6h48c5.1,0,9.8,1.1,14.1,3.2,4.3,2.2,8.1,5.1,11.2,8.7,3.1,3.7,5.6,7.7,7.3,12.3,1.7,4.5,2.6,9.1,2.6,13.7s-.6,8.3-1.8,12.2c-1.2,3.9-2.9,7.5-5.2,10.7-2.3,3.2-5,6-8.1,8.4l22.1,40.3h-31.5l-18.4-33.7h-11.6v33.7h-28.7ZM644.5,815.9h18.1c1.2,0,2.3-.5,3.4-1.4,1.1-.9,2-2.3,2.7-4,.7-1.7,1.1-3.9,1.1-6.3s-.4-4.7-1.3-6.4c-.8-1.7-1.9-3-3.1-3.9-1.2-.9-2.4-1.4-3.6-1.4h-17.4v23.5Z"/>
    <path class="st0" d="M742.1,766.2h32.1l33.3,109.6h-29.2l-5.4-21.5h-29.5l-5.4,21.5h-29.3l33.4-109.6ZM767.9,834.3l-9.7-38.6-9.7,38.6h19.4Z"/>
    <path class="st0" d="M814.5,875.8v-109.6h28.7v109.6h-28.7Z"/>
  </g>
  <g>
    <path class="st0" d="M374.3,751.9v-86.7h29.3c6.7,0,12.5,1.1,17.5,3.4,5,2.3,9.2,5.4,12.6,9.3,3.4,3.9,5.9,8.5,7.6,13.7,1.7,5.2,2.6,10.8,2.6,16.8s-1,12.6-2.9,17.9c-1.9,5.3-4.6,9.9-8.1,13.7-3.5,3.8-7.7,6.7-12.7,8.8-5,2.1-10.5,3.1-16.7,3.1h-29.3ZM430.7,708.4c0-4.6-.6-8.7-1.8-12.6-1.2-3.8-3-7.1-5.3-9.8-2.3-2.7-5.2-4.9-8.5-6.4-3.3-1.5-7.1-2.3-11.4-2.3h-16.3v62.5h16.3c4.4,0,8.2-.8,11.6-2.4,3.4-1.6,6.2-3.8,8.5-6.6,2.3-2.8,4-6.1,5.2-9.9,1.2-3.8,1.7-8,1.7-12.5Z"/>
    <path class="st0" d="M503.5,752.5c-5.8,0-11.1-1.2-15.9-3.7-4.8-2.5-8.9-5.8-12.3-9.9-3.5-4.1-6.1-8.8-8-14.1-1.9-5.3-2.8-10.7-2.8-16.2s1-11.3,3-16.6c2-5.3,4.7-10,8.2-14,3.5-4.1,7.6-7.3,12.5-9.7,4.8-2.4,10.1-3.6,15.7-3.6s11.1,1.3,15.9,3.8c4.8,2.6,8.9,5.9,12.3,10.1,3.4,4.2,6.1,8.9,7.9,14.1,1.9,5.2,2.8,10.6,2.8,16s-1,11.3-3,16.6c-2,5.3-4.7,10-8.2,14-3.5,4-7.6,7.2-12.4,9.6-4.8,2.4-10,3.6-15.7,3.6ZM477.7,708.6c0,4.1.6,8,1.8,11.8,1.2,3.8,2.9,7.2,5.2,10.1,2.3,2.9,5,5.3,8.2,7,3.2,1.8,6.8,2.6,10.7,2.6s7.7-.9,10.9-2.8c3.2-1.8,5.9-4.3,8.2-7.3,2.2-3,3.9-6.4,5.1-10.1,1.2-3.7,1.7-7.6,1.7-11.5s-.6-8.1-1.9-11.9c-1.2-3.8-3-7.1-5.2-10-2.3-2.9-5-5.2-8.1-7-3.2-1.8-6.7-2.6-10.6-2.6s-7.7.9-10.9,2.7c-3.2,1.8-5.9,4.2-8.1,7.1-2.2,2.9-3.9,6.3-5.1,10.1-1.2,3.8-1.7,7.6-1.7,11.5Z"/>
    <path class="st0" d="M559.1,736.6c1.3,1,3.3,1.9,5.9,2.9,2.6.9,5.6,1.4,8.9,1.4s6.4-.7,8.6-2c2.1-1.3,3.8-3.3,4.9-6,1.1-2.6,1.9-5.9,2.2-9.9.3-3.9.5-8.5.5-13.7v-43.9h13.2v43.9c0,6.6-.3,12.6-.9,18-.6,5.4-1.9,10-4,13.9-2,3.8-5,6.8-8.8,8.9-3.9,2.1-9.1,3.2-15.6,3.2s-13-1.8-17.9-5.4l3.1-11.2Z"/>
    <path class="st0" d="M666.4,752.5c-5.8,0-11.1-1.2-15.9-3.7-4.8-2.5-8.9-5.8-12.3-9.9-3.5-4.1-6.1-8.8-8-14.1-1.9-5.3-2.8-10.7-2.8-16.2s1-11.3,3-16.6c2-5.3,4.7-10,8.2-14,3.5-4.1,7.6-7.3,12.5-9.7,4.8-2.4,10.1-3.6,15.7-3.6s11.1,1.3,15.9,3.8c4.8,2.6,8.9,5.9,12.3,10.1s6.1,8.9,7.9,14.1c1.9,5.2,2.8,10.6,2.8,16s-1,11.3-3,16.6c-2,5.3-4.7,10-8.2,14-3.5,4-7.6,7.2-12.4,9.6-4.8,2.4-10,3.6-15.7,3.6ZM640.7,708.6c0,4.1.6,8,1.8,11.8,1.2,3.8,2.9,7.2,5.2,10.1,2.3,2.9,5,5.3,8.2,7,3.2,1.8,6.8,2.6,10.7,2.6s7.7-.9,10.9-2.8c3.2-1.8,5.9-4.3,8.2-7.3,2.2-3,3.9-6.4,5.1-10.1,1.2-3.7,1.7-7.6,1.7-11.5s-.6-8.1-1.9-11.9c-1.2-3.8-3-7.1-5.2-10-2.3-2.9-5-5.2-8.1-7-3.2-1.8-6.7-2.6-10.6-2.6s-7.7.9-10.9,2.7c-3.2,1.8-5.9,4.2-8.1,7.1-2.2,2.9-3.9,6.3-5.1,10.1s-1.7,7.6-1.7,11.5Z"/>
  </g>
  <g>
    <path class="st0" d="M236.8,918.5l11.6-28.8h3.7l11.6,28.8h-4.8l-3.1-7.8h-11.1l-3,7.8h-4.9ZM250.3,894.7l-4.8,12.6h9.4l-4.6-12.6Z"/>
    <path class="st0" d="M269.1,903.9c0-1.7.3-3.5.9-5.2.6-1.7,1.5-3.3,2.7-4.6,1.2-1.4,2.6-2.5,4.3-3.3,1.7-.8,3.6-1.3,5.8-1.3s4.8.6,6.6,1.7c1.9,1.2,3.2,2.7,4.2,4.6l-3.6,2.4c-.4-.9-.8-1.6-1.4-2.2-.6-.6-1.2-1.1-1.9-1.4-.7-.4-1.3-.6-2-.8-.7-.1-1.4-.2-2.1-.2-1.5,0-2.8.3-3.9.9-1.1.6-2.1,1.4-2.8,2.4-.8,1-1.3,2.1-1.7,3.4-.4,1.2-.6,2.5-.6,3.7s.2,2.7.7,4c.5,1.3,1.1,2.4,1.9,3.4.8,1,1.8,1.8,2.9,2.3,1.1.6,2.3.9,3.7.9s1.4,0,2.1-.3c.7-.2,1.4-.5,2.1-.9.7-.4,1.3-.9,1.8-1.5.6-.6,1-1.3,1.4-2.2l3.8,2.2c-.5,1.1-1.1,2-1.9,2.9-.8.8-1.8,1.5-2.8,2.1-1,.6-2.1,1-3.3,1.3-1.2.3-2.3.4-3.5.4-2,0-3.8-.4-5.5-1.3-1.7-.9-3.1-2-4.3-3.4-1.2-1.4-2.1-3-2.8-4.8-.7-1.8-1-3.6-1-5.4Z"/>
    <path class="st0" d="M300,918.5l11.6-28.8h3.7l11.6,28.8h-4.8l-3.1-7.8h-11.1l-3,7.8h-4.9ZM313.4,894.7l-4.8,12.6h9.4l-4.6-12.6Z"/>
    <path class="st0" d="M335,918.5v-28.8h10.2c2.3,0,4.4.4,6.1,1.1,1.7.8,3.2,1.8,4.4,3.1,1.2,1.3,2.1,2.8,2.7,4.6.6,1.7.9,3.6.9,5.6s-.3,4.2-1,6c-.7,1.8-1.6,3.3-2.8,4.5-1.2,1.3-2.7,2.2-4.4,2.9-1.7.7-3.7,1-5.8,1h-10.2ZM354.6,904c0-1.5-.2-2.9-.6-4.2-.4-1.3-1-2.4-1.8-3.3-.8-.9-1.8-1.6-3-2.1s-2.5-.8-4-.8h-5.7v20.8h5.7c1.5,0,2.9-.3,4-.8,1.2-.5,2.2-1.3,3-2.2.8-.9,1.4-2,1.8-3.3.4-1.3.6-2.7.6-4.1Z"/>
    <path class="st0" d="M388.9,914.5v4h-19.8v-28.8h19.4v4h-14.9v8.2h12.9v3.8h-12.9v8.8h15.2Z"/>
    <path class="st0" d="M422.6,918.5v-20.8l-8.6,15.7h-2.5l-8.6-15.7v20.8h-4.5v-28.8h4.9l9.5,17.6,9.6-17.6h4.9v28.8h-4.6Z"/>
    <path class="st0" d="M438.5,918.5v-28.8h4.5v28.8h-4.5Z"/>
    <path class="st0" d="M451.2,918.5l11.6-28.8h3.7l11.6,28.8h-4.8l-3.1-7.8h-11.1l-3,7.8h-4.9ZM464.7,894.7l-4.8,12.6h9.4l-4.6-12.6Z"/>
    <path class="st0" d="M499.7,918.5v-28.8h10.2c2.3,0,4.4.4,6.1,1.1,1.7.8,3.2,1.8,4.4,3.1,1.2,1.3,2.1,2.8,2.7,4.6.6,1.7.9,3.6.9,5.6s-.3,4.2-1,6c-.7,1.8-1.6,3.3-2.8,4.5-1.2,1.3-2.7,2.2-4.4,2.9-1.7.7-3.7,1-5.8,1h-10.2ZM519.4,904c0-1.5-.2-2.9-.6-4.2-.4-1.3-1-2.4-1.8-3.3-.8-.9-1.8-1.6-3-2.1-1.2-.5-2.5-.8-4-.8h-5.7v20.8h5.7c1.5,0,2.9-.3,4-.8,1.2-.5,2.2-1.3,3-2.2.8-.9,1.4-2,1.8-3.3.4-1.3.6-2.7.6-4.1Z"/>
    <path class="st0" d="M553.6,914.5v4h-19.8v-28.8h19.4v4h-14.9v8.2h12.9v3.8h-12.9v8.8h15.2Z"/>
    <path class="st0" d="M576.5,918.5v-28.8h4.5v15l13.7-15.1h4.9l-11.4,12.8,12,16.1h-4.9l-9.8-13.5-4.5,4.7v8.8h-4.5Z"/>
    <path class="st0" d="M606.6,918.5l11.6-28.8h3.7l11.6,28.8h-4.8l-3.1-7.8h-11.1l-3,7.8h-4.9ZM620,894.7l-4.8,12.6h9.4l-4.6-12.6Z"/>
    <path class="st0" d="M641.6,918.5v-28.8h12.6c1.3,0,2.5.3,3.6.8,1.1.5,2,1.3,2.8,2.1s1.4,1.9,1.9,3c.4,1.1.7,2.3.7,3.4s-.1,1.9-.4,2.8c-.3.9-.6,1.7-1.1,2.5-.5.8-1.1,1.4-1.8,2-.7.6-1.5,1-2.3,1.2l6.9,11h-5.2l-6.3-10h-6.7v10h-4.5ZM646.1,904.4h8c.6,0,1.2-.1,1.8-.4.5-.3,1-.7,1.4-1.2.4-.5.7-1.1.9-1.7.2-.6.3-1.3.3-2.1s-.1-1.4-.4-2.1c-.3-.7-.6-1.2-1-1.7s-.9-.9-1.5-1.2c-.6-.3-1.1-.4-1.7-.4h-7.7v10.8Z"/>
    <path class="st0" d="M671.3,918.5l11.6-28.8h3.7l11.6,28.8h-4.8l-3.1-7.8h-11.1l-3,7.8h-4.9ZM684.8,894.7l-4.8,12.6h9.4l-4.6-12.6Z"/>
    <path class="st0" d="M724.3,893.7h-9.6v24.8h-4.6v-24.8h-9.6v-4h23.8v4Z"/>
    <path class="st0" d="M752.4,914.5v4h-19.8v-28.8h19.4v4h-14.9v8.2h12.9v3.8h-12.9v8.8h15.2Z"/>
    <path class="st0" d="M760.6,909.4v-4h12.2v4h-12.2Z"/>
    <path class="st0" d="M783.6,918.5v-28.8h10.2c2.3,0,4.4.4,6.1,1.1,1.7.8,3.2,1.8,4.4,3.1,1.2,1.3,2.1,2.8,2.7,4.6.6,1.7.9,3.6.9,5.6s-.3,4.2-1,6c-.7,1.8-1.6,3.3-2.8,4.5-1.2,1.3-2.7,2.2-4.4,2.9-1.7.7-3.7,1-5.8,1h-10.2ZM803.3,904c0-1.5-.2-2.9-.6-4.2-.4-1.3-1-2.4-1.8-3.3-.8-.9-1.8-1.6-3-2.1-1.2-.5-2.5-.8-4-.8h-5.7v20.8h5.7c1.5,0,2.9-.3,4-.8,1.2-.5,2.2-1.3,3-2.2.8-.9,1.4-2,1.8-3.3.4-1.3.6-2.7.6-4.1Z"/>
    <path class="st0" d="M829.5,918.7c-2,0-3.9-.4-5.5-1.2-1.7-.8-3.1-1.9-4.3-3.3-1.2-1.4-2.1-2.9-2.8-4.7-.7-1.8-1-3.6-1-5.4s.3-3.8,1-5.5c.7-1.8,1.6-3.3,2.9-4.7,1.2-1.4,2.7-2.4,4.3-3.2,1.7-.8,3.5-1.2,5.5-1.2s3.9.4,5.5,1.3c1.7.9,3.1,2,4.3,3.3,1.2,1.4,2.1,2.9,2.8,4.7.6,1.7,1,3.5,1,5.3s-.3,3.8-1,5.5c-.7,1.8-1.6,3.3-2.9,4.7-1.2,1.3-2.7,2.4-4.3,3.2-1.7.8-3.5,1.2-5.5,1.2ZM820.6,904.1c0,1.4.2,2.7.6,3.9.4,1.3,1,2.4,1.8,3.4.8,1,1.7,1.8,2.8,2.3,1.1.6,2.4.9,3.7.9s2.7-.3,3.8-.9c1.1-.6,2.1-1.4,2.8-2.4.8-1,1.4-2.1,1.8-3.4.4-1.2.6-2.5.6-3.8s-.2-2.7-.7-4c-.4-1.3-1-2.4-1.8-3.3-.8-1-1.7-1.7-2.8-2.3-1.1-.6-2.3-.9-3.7-.9s-2.7.3-3.8.9c-1.1.6-2.1,1.4-2.8,2.4-.8,1-1.4,2.1-1.8,3.4-.4,1.3-.6,2.5-.6,3.8Z"/>
  </g>
  <g>
    <g>
      <path class="st0" d="M623.2,962.1c4.2-1.2,16.4,5,13.8,10.4-3.4,15.4-3.6,33,2.7,47.7,1.7,2.6,3.2,2.5,4.7,0,5.8-9.4,10.8-19.4,17.1-28.5,3.5,4.9-16.4,28.9-12.4,38.9,1.4,7.5-9.4-.5-11-3.2-10.7-17.3-6-37.5-8.5-56.2-.5-3.6-2.2-6.5-5.7-8-.4-.1-1-.7-.6-1.1Z"/>
      <path class="st0" d="M677.2,968.5c.5-.6,1.4,0,1.9.2,13.4,7,22.6,17.5,26.1,32.4.5,3.2,1.7,9.6-2.9,10-2.2.3-3.6-.7-4-2.9-1.8-14.5-8.2-27.8-19.4-37.3-.5-.5-1-.9-1.5-1.4,0,0-.7-.4-.3-.9Z"/>
    </g>
    <g>
      <path class="st0" d="M567.4,1007.6c-4.8-2-18.5-.3-23.5.2-9.3.9-8.9-1.3-1.7-5.7,6.2-3.8,4.6-4.3-3.2-6.9-1.8-.6-3-2.2-4.5-2-1.7,1.9.7,4.5-1.2,8.3-4.5,10.1-12.4,8.7-20.1,7.1-6.3-.2-3.3,6-1.3,9.3,3,4.9,1.2,26.4,1,26.9-1,2.9-.6,4.3,4.2,4.6,6.6.4,4.3-3.3,5.6-6.7,1-2,7.1-1.8,10.9-1.7,5.7,0,12.2-.4,16.4,0,2.4.3,8.7-2,6.8,2.5-3.5,6.2,7.5,1.9,8.6,1.2.9-.7.9-1.9.9-4.3,0-6.3,2.6-21.4,4.4-25.4,2.7-3.4,1.9-5.6-3.1-7.6ZM561.7,1026.8c-1.3,11.4-6.8,11.4-17.2,10.8-7.5-1.2-16.7,2.4-23-.4-1.7-1.8-1.2-5.5.2-7.7.9-1.4,2.5-1.4,5.8-1.6,5.8-.4,13.5-.1,18.2,0,1.8,0,7.8,1.1,7.9-2.1-2.9-4.5-20.3-4.1-22.6-2.5-2,.7-10.9,4.1-10.8,1.7.3-3.9-6.1-12.7.6-12.6,9.2,1.2,21.9,3.6,32.8,3.5,8.2-.8,10.5.8,8.1,11Z"/>
      <path class="st0" d="M509.2,967.1c2.7.6,11.6,6.7,6.8,0-1.6-2.2-5.2-5.3-7.9-5.4-5.5,3-4.9,4.6,1.1,5.4Z"/>
      <path class="st0" d="M545.8,966.2c3.9.1,8.8,3.2,12,3.9.2-3.5-5.3-7.2-8.3-8.4-2-.5-8.6,4.9-3.7,4.5Z"/>
      <path class="st0" d="M532.9,946.6c-8.3,10.5-18.3,5.9-29.4,3.4-3.3,0-4.6,5.7-4.1,8.4,1.7,2.5,8.2-1.5,10.7-1,4.5,0,12.6-2.3,16.1.8,1,1.8,0,3.6.4,5.9.7,5-3.3,7.2-7.2,9.7-3.6,2.4-14.2,9.5-14.5,14.7,0,.9.9,1.4,1.7,1,6.1-3.6,19.9-18.6,19.5-8.8.1,5.2-1.5,6.3.5,12,1.2,3.1,1.3,3.3,2,0,2.1-11.7,2.1-23.6,3.9-35.5.3-1.5,1.9-3.3,2.6-4.8.2-1.5-.8-5.9-2.1-5.9h0Z"/>
      <path class="st0" d="M573.5,946.6c-1.4.7-3,3.2-3.9,3.9-2.6,2.4-5.3,2.4-9.3,2.6-4.8.3-11.6-2.4-16.2-3.1-2.9-.4-4,5-4.1,5.9-.6,4.5,1.3,3.4,4.3,2.7,4.8-1.5,9.6-1.6,14.5-1.9,2.5-.3,6.8-.3,7.9,1.1,1.4,1.8.2,3.7.5,6,.5,2.3-1,5.3-2.4,6.4-4.2,3.7-21.6,13.1-18.9,19.8,4.9-1.5,21.3-20.1,20.9-9.4.1,5.2-1.5,6.4.5,12,1.2,3.1,1.3,3.3,2,0,3.2-13.4-.2-28.1,6.6-40.5,0-1-.9-5.8-2.2-5.6v-.5s0,0,0,0v.5Z"/>
    </g>
    <path class="st0" d="M445,1029.4c-.2-.5-.8-.5-1,0-2.4,6.4-8.5,7.9-15.2,7.7-8.8.2-5.7-7.2-4.2-12.7,1.7-6.2-1.6-13.2-5.3-18.4-1.8-2.6,7.4-1.6,8.2-1,2.7,1.8,4.3,7.1,7.7,6.2,4.4-.8,3.4-8.2,3.2-9.7-1.9-13.6.3-35.6,6.4-44.3.5-.9,1.2-2.6.7-3.8-.3-.8-.3-.9-4.6-2.9-2.3-1-3.4-1.6-3.9-1.7-14.1,1.6-23.7,3-37.8.5-6.2-.2-15.8-5.7-10.8,5.2,3.6,10.3,3.1,7.3,3,21.7-.7,12.3-.4,16.6-3,27-2.8,6.5,7.2,5.4,10.6,3.2.7-.4,1.5.3,1.3,1-3.3,15.8-15.3,26.6-24.9,38.7-.5.6-1.6,1.7-1.2,1.6,15-2.7,29.1-23.5,32.9-36.9,2.9-9.1,9.4-3.9,9.2,3.5.2,16.1-8,34.3,17.1,30.8,12.1-.7,16-3.5,11.4-15.9ZM416.4,1001.8c-3.9,0-7.5,0-12.2.4-3.2.4-10.2,1.3-8-3.7.6-1.3-.3-4.9-.2-6.5,0-.4.3-1.3.9-1.2,1.3,0,9.5.3,12.1.2,5.3-.4,17.4,2.3,17.3,1.4-.8-1.7-1.9-2.9-3-4.7-1-1.6-1.2-2.3-3.1-2.3-7.6.6-10.4.5-16.5,2-4.1,1.5-6.3.2-6.7-4.7-1.7-8.6,7.3-10.1,14.4-8.9,8,.4,9,1.3,14.1,2.9.4,0,.7-.3.8-.6,2.8-8.8-11-7.2-17.7-6.7-10.5,1.9-9.5-1.8-9.6-10-.4-1.9-4.6-8-1.4-7.6,13.6,4.9,39.9-4,36.1,19-.5,4.8-.3,1.1-1.8,14.5-3.4,22.4,11,16.7-15.4,16.4Z"/>
  </g>
  <g>
    <path class="st0" d="M421,392.5h50.9c1.8,0,2.7-.4,3.6-2.7,2.2-6,4.5-11.9,6.7-17.7,2.2-5.8,4.4-11.6,6.6-17.4l19.3-55.3c2.1-5.5,4.2-11.6,6.6-18.8,1.9-5.6,4.3-12.9,6.6-20.4,2.5-8,4.6-14.5,6.7-20.6,2.1-6.3,4.3-12.8,6.7-19.2l5.5-14.9,5.1,15.1,26.4,78.9,19.3,55.4c2.1,5.8,4.3,11.6,6.5,17.4,2.2,5.8,4.4,11.6,6.7,17.5.7,1.9,1.2,2.3,1.2,2.3.1,0,.8.5,3,.5h49.6c.9,0,1.5,0,1.8-.2l-90.6-233.7-4-9c-.5-.5-1.1-1.2-2-2-.2-.2-.4-.4-1.3-.4h-44.2c0,0-.4,0-.9.2-.5.2-1.1.5-1.6.9-.5.4-.9.8-1.3,1.2v.2s-.3.6-.3.6l-93.4,242c.2,0,.4,0,.7,0Z"/>
    <path class="st0" d="M660.6,432.1h-241.2c-1.3,0-1.7.2-1.8.3,0,0-.2.4-.2,1.7v50.8c0,2.9.4,2.9,2,2.9h241.2c.4,0,.5,0,.9-.6,1-1.4,1.1-2.1,1.1-2.3v-50.8c0-.9-.2-1.3-.3-1.4-.4-.3-.8-.6-1.7-.6Z"/>
    <path class="st0" d="M843.2,333.7c0-167.2-136-303.2-303.2-303.2S236.8,166.5,236.8,333.7s136,303.2,303.2,303.2,303.2-136,303.2-303.2ZM540,590.8c-141.8,0-257.1-115.3-257.1-257.1S398.2,76.6,540,76.6s257.1,115.3,257.1,257.1-115.3,257.1-257.1,257.1Z"/>
  </g>
</svg>