<?xml version="1.0" encoding="UTF-8"?>
<svg id="Capa_1" xmlns="http://www.w3.org/2000/svg" version="1.1" viewBox="0 0 1080 1080">
  <!-- Generator: Adobe Illustrator 29.0.0, SVG Export Plug-In . SVG Version: 2.1.0 Build 186)  -->
  <g>
    <path d="M789.5,432.8c12.5-3.5,49,15.1,41.3,31.3-10.3,46.2-10.9,99.1,8,142.9,5,7.7,9.5,7.6,14.1-.2,17.5-28.3,32.4-58.1,51.3-85.3,10.3,14.6-49,86.8-37.2,116.7,4.1,22.5-28.1-1.5-33.1-9.6-32-51.9-17.9-112.3-25.4-168.4-1.5-10.8-6.7-19.4-17.2-24.1-1.3-.4-2.9-2-1.7-3.3Z"/>
    <path d="M951.4,452.1c1.5-1.8,4.3-.3,5.7.5,40.2,21,67.7,52.5,78.2,97.3,1.5,9.7,5.2,28.6-8.6,29.9-6.6.8-10.7-2.1-12-8.6-5.5-43.4-24.5-83.3-58-112-1.5-1.4-3-2.8-4.5-4.3-.3-.3-2-1.2-.8-2.8Z"/>
  </g>
  <g>
    <path d="M622.2,569.3c-14.5-6.1-55.4-.9-70.5.6-27.9,2.8-26.8-3.9-5.2-17,18.6-11.3,13.6-12.9-9.5-20.6s-9.1-6.7-13.4-6.1c-5,5.8,2.1,13.5-3.6,24.7-13.4,30.3-37.1,26.1-60.3,21.4-19-.6-10,18.1-4,27.9,9,14.7,3.5,79.1,3,80.8-2.9,8.6-1.7,12.9,12.5,13.8,19.9,1.1,12.9-9.9,16.8-20,2.9-6.1,21.4-5.3,32.7-5.2,17-.1,36.6-1.1,49.1.3,7.2.8,26-5.9,20.4,7.6-10.4,18.7,22.4,5.6,25.9,3.6,2.8-2,2.8-5.6,2.6-12.8-.1-19,7.9-64.1,13-76.1,8.2-10.1,5.6-16.7-9.3-22.9ZM605.2,626.9c-3.9,34.3-20.4,34.2-51.4,32.3-22.5-3.6-50,7.1-69.1-1.2-5.1-5.5-3.7-16.4.6-23.1,2.7-4.3,7.5-4.3,17.3-4.8,17.5-1.3,40.3-.4,54.7,0,5.3.2,23.4,3.3,23.7-6.4-8.6-13.6-60.9-12.3-67.7-7.6-6.1,2.2-32.8,12.2-32.3,5,.9-11.7-18.4-38.2,1.7-37.8,27.6,3.5,65.6,10.9,98.3,10.6,24.7-2.5,31.4,2.5,24.4,33Z"/>
    <path d="M447.7,447.8c8.2,1.7,34.7,20,20.4,0-4.8-6.5-15.6-15.7-23.7-16.1-16.6,8.9-14.8,13.7,3.3,16.1Z"/>
    <path d="M557.4,445.2c11.7.3,26.5,9.6,36,11.8.5-10.6-15.8-21.6-25-25.3-5.9-1.4-25.8,14.8-11,13.5Z"/>
    <path d="M518.7,386.4c-24.8,31.4-54.9,17.7-88.3,10.2-10-.1-13.9,17.2-12.2,25.1,5.1,7.6,24.5-4.5,32-3.1,13.5.3,37.8-6.8,48.2,2.4,3.1,5.5.2,10.9,1.2,17.6,2.2,14.9-10,21.6-21.5,29.2-10.8,7.1-42.5,28.4-43.5,44.1-.2,2.6,2.8,4.3,5.1,3,18.3-10.9,59.5-55.6,58.4-26.3.4,15.5-4.5,19,1.6,35.9,3.5,9.2,4,9.8,6,.2,6.2-35.1,6.2-70.8,11.7-106.4,1-4.6,5.8-9.8,7.7-14.4.6-4.6-2.5-17.6-6.3-17.6v-1.4s0,0,0,0v1.4Z"/>
    <path d="M640.5,386.4c-4.2,2-9.1,9.5-11.7,11.7-7.9,7.1-15.8,7.1-27.9,7.9-14.4,1-34.7-7.1-48.7-9.4-8.8-1.2-12.1,15.1-12.4,17.8-1.9,13.5,3.8,10.3,12.9,8.2,14.4-4.4,28.9-4.7,43.3-5.7,7.5-.8,20.4-.9,23.6,3.3,4.2,5.4.5,11.2,1.6,18,1.6,7-2.9,15.8-7.2,19.3-12.6,11.1-64.8,39.3-56.8,59.5,14.8-4.4,63.9-60.3,62.7-28.3.4,15.4-4.4,19.1,1.6,35.9,3.5,9.2,4,9.9,6,.3,9.5-40.2-.6-84.4,19.6-121.6,0-2.9-2.6-17.3-6.6-16.9v-1.4s0,0,0,0v1.4Z"/>
  </g>
  <path d="M255.3,634.7c-.5-1.4-2.4-1.5-3-.1-7.2,19.2-25.4,23.8-45.6,23-26.4.7-17.1-21.5-12.5-38,5.2-18.6-4.9-39.5-15.9-55.1-5.5-7.8,22.1-4.7,24.7-2.9,8,5.4,13,21.2,23.1,18.6,13.2-2.3,10.2-24.6,9.5-29-5.7-40.8.9-106.7,19.3-132.9,1.6-2.6,3.6-7.9,2.1-11.3-.9-2.4-1-2.8-13.8-8.8-6.9-3-10.2-4.9-11.8-5-42.4,4.9-71,8.8-113.4,1.5-18.5-.7-47.2-17-32.3,15.6,10.8,30.9,9.3,22,9.1,65-2.1,36.8-1.1,49.8-9.1,80.9-8.3,19.6,21.6,16.1,31.9,9.6,2-1.2,4.6.9,3.9,3.1-10,47.4-45.9,79.6-74.7,116.1-1.4,1.9-4.9,5-3.5,4.7,44.9-8.2,87.2-70.4,98.6-110.5,8.7-27.2,28.3-11.7,27.7,10.5.6,48.1-23.9,102.8,51.3,92.4,36.2-2.2,48.1-10.3,34.2-47.6ZM169.4,551.7c-11.6.2-22.3.2-36.5,1.3-9.5,1.1-30.5,4-23.9-11,1.7-4-.8-14.7-.7-19.6,0-1.1.8-3.8,2.7-3.7,4,.1,28.4.8,36.2.5,15.9-1.3,52.2,6.9,52,4.2-2.4-5.2-5.6-8.8-8.9-14.2-3.1-4.7-3.7-7-9.4-6.8-22.9,1.7-31.3,1.4-49.6,6-12.3,4.4-18.9.5-20-14-5-25.8,22-30.4,43.1-26.7,23.8,1.3,27,3.8,42.3,8.7,1.1,0,2.2-.8,2.5-1.8,8.5-26.3-33.1-21.6-53.1-20-31.3,5.7-28.6-5.3-28.9-30.1-1.3-5.6-13.8-24.1-4.3-22.7,40.9,14.8,119.8-11.9,108.1,57.1-1.6,14.5-.9,3.2-5.3,43.4-10.2,67.3,32.9,50.2-46.3,49.3Z"/>
</svg>