<svg xmlns="http://www.w3.org/2000/svg" version="1.1" xmlns:xlink="http://www.w3.org/1999/xlink" width="488.16" height="486"><svg xmlns="http://www.w3.org/2000/svg" version="1.1" xmlns:xlink="http://www.w3.org/1999/xlink" width="488.16" height="486"><svg viewBox="21.6 295.92 488.16 486" version="1.1" xmlns="http://www.w3.org/2000/svg" id="Capa_1" style="max-height: 500px" width="488.16" height="486">
  
  <defs>
    <style>
      .st0 {
        fill: #212828;
      }

      .st1 {
        fill: #ab0c29;
      }

      .st2 {
        fill: #e9ad2f;
      }
    </style>
  </defs>
  <g>
    <g>
      <path d="M639.6,560.4v-45.7l-13.9,32.2h-12.1l-13.9-32.2v45.7h-22.7v-86.8h24.8l17.8,40.8,18-40.8h24.7v86.8h-22.7Z" class="st1"></path>
      <path d="M676.9,560.4v-86.8h22.7v86.8h-22.7Z" class="st1"></path>
      <path d="M736.8,517.7v42.7h-22.7v-86.8h17.7l33.2,44.1v-44.1h22.7v86.8h-18.1l-32.9-42.7Z" class="st1"></path>
      <path d="M819.8,473.5h25.4l26.4,86.8h-23.1l-4.3-17h-23.4l-4.3,17h-23.2l26.5-86.8ZM840.2,527.5l-7.7-30.6-7.7,30.6h15.4Z" class="st1"></path>
      <path d="M877.1,560.4v-86.8h38c4,0,7.8.9,11.2,2.6,3.4,1.7,6.4,4,8.9,6.9,2.5,2.9,4.4,6.1,5.8,9.7,1.4,3.6,2,7.2,2,10.9s-.5,6.6-1.4,9.7c-.9,3.1-2.3,5.9-4.1,8.5-1.8,2.6-3.9,4.8-6.4,6.7l17.5,31.9h-25l-14.6-26.7h-9.2v26.7h-22.7ZM899.8,512.9h14.3c.9,0,1.8-.4,2.7-1.1.9-.7,1.6-1.8,2.2-3.2.6-1.4.9-3.1.9-5s-.3-3.7-1-5.1c-.7-1.3-1.5-2.4-2.4-3.1-1-.7-1.9-1.1-2.9-1.1h-13.8v18.6Z" class="st1"></path>
      <path d="M977.2,473.5h25.4l26.4,86.8h-23.1l-4.3-17h-23.4l-4.3,17h-23.2l26.5-86.8ZM997.6,527.5l-7.7-30.6-7.7,30.6h15.4Z" class="st1"></path>
      <path d="M1034.5,560.4v-86.8h22.7v86.8h-22.7Z" class="st1"></path>
    </g>
    <g>
      <path d="M577,462.2v-68.6h23.2c5.3,0,9.9.9,13.9,2.7,4,1.8,7.3,4.3,10,7.3,2.7,3.1,4.7,6.7,6,10.9,1.4,4.2,2,8.6,2,13.3s-.8,9.9-2.3,14.2c-1.5,4.2-3.6,7.8-6.4,10.8-2.8,3-6.1,5.3-10.1,7-3.9,1.6-8.3,2.5-13.2,2.5h-23.2ZM621.6,427.8c0-3.6-.5-6.9-1.4-10-1-3-2.4-5.6-4.2-7.8-1.8-2.2-4.1-3.9-6.7-5.1-2.6-1.2-5.7-1.8-9-1.8h-12.9v49.5h12.9c3.4,0,6.5-.6,9.2-1.9,2.7-1.3,4.9-3,6.7-5.2,1.8-2.2,3.2-4.8,4.1-7.9.9-3,1.4-6.3,1.4-9.9Z" class="st0"></path>
      <path d="M679.3,462.7c-4.6,0-8.8-1-12.6-3-3.8-2-7-4.6-9.8-7.8-2.7-3.3-4.8-7-6.3-11.2-1.5-4.2-2.2-8.5-2.2-12.9s.8-9,2.4-13.1c1.6-4.2,3.7-7.9,6.5-11.1,2.8-3.2,6.1-5.8,9.9-7.7,3.8-1.9,8-2.9,12.4-2.9s8.8,1,12.6,3c3.8,2,7,4.7,9.7,8,2.7,3.3,4.8,7,6.3,11.2,1.5,4.2,2.2,8.4,2.2,12.7s-.8,9-2.4,13.1c-1.6,4.2-3.7,7.9-6.5,11.1-2.8,3.2-6,5.7-9.8,7.6-3.8,1.9-7.9,2.9-12.4,2.9ZM658.9,427.9c0,3.2.5,6.3,1.4,9.4,1,3,2.3,5.7,4.1,8,1.8,2.3,3.9,4.2,6.5,5.6,2.5,1.4,5.3,2.1,8.5,2.1s6.1-.7,8.6-2.2c2.6-1.4,4.7-3.4,6.5-5.7,1.8-2.4,3.1-5.1,4-8,.9-3,1.4-6,1.4-9.1s-.5-6.4-1.5-9.4c-1-3-2.4-5.6-4.2-7.9-1.8-2.3-3.9-4.1-6.5-5.5-2.5-1.4-5.3-2.1-8.4-2.1s-6.1.7-8.6,2.2c-2.6,1.5-4.7,3.3-6.5,5.7-1.8,2.3-3.1,5-4,8s-1.4,6-1.4,9.1Z" class="st0"></path>
      <path d="M723.3,450.1c1,.8,2.6,1.5,4.7,2.3,2.1.7,4.4,1.1,7.1,1.1s5.1-.5,6.8-1.6c1.7-1.1,3-2.6,3.9-4.7.9-2.1,1.5-4.7,1.8-7.8.3-3.1.4-6.8.4-10.9v-34.8h10.4v34.8c0,5.2-.2,10-.7,14.3-.5,4.3-1.5,7.9-3.1,11-1.6,3-3.9,5.4-7,7.1-3.1,1.7-7.2,2.5-12.4,2.5s-10.3-1.4-14.2-4.3l2.5-8.9Z" class="st0"></path>
      <path d="M808.3,462.7c-4.6,0-8.8-1-12.6-3-3.8-2-7-4.6-9.8-7.8-2.7-3.3-4.8-7-6.3-11.2-1.5-4.2-2.2-8.5-2.2-12.9s.8-9,2.4-13.1c1.6-4.2,3.7-7.9,6.5-11.1,2.8-3.2,6.1-5.8,9.9-7.7,3.8-1.9,8-2.9,12.4-2.9s8.8,1,12.6,3c3.8,2,7,4.7,9.7,8,2.7,3.3,4.8,7,6.3,11.2,1.5,4.2,2.2,8.4,2.2,12.7s-.8,9-2.4,13.1c-1.6,4.2-3.7,7.9-6.5,11.1-2.8,3.2-6,5.7-9.8,7.6-3.8,1.9-7.9,2.9-12.4,2.9ZM787.9,427.9c0,3.2.5,6.3,1.4,9.4,1,3,2.3,5.7,4.1,8,1.8,2.3,3.9,4.2,6.5,5.6,2.5,1.4,5.3,2.1,8.5,2.1s6.1-.7,8.6-2.2c2.6-1.4,4.7-3.4,6.5-5.7,1.8-2.4,3.1-5.1,4-8,.9-3,1.4-6,1.4-9.1s-.5-6.4-1.5-9.4c-1-3-2.4-5.6-4.2-7.9-1.8-2.3-3.9-4.1-6.5-5.5-2.5-1.4-5.3-2.1-8.4-2.1s-6.1.7-8.6,2.2c-2.6,1.5-4.7,3.3-6.5,5.7-1.8,2.3-3.1,5-4,8-.9,3-1.4,6-1.4,9.1Z" class="st0"></path>
    </g>
    <g>
      <path d="M577,594.1l9.2-22.8h3l9.2,22.8h-3.8l-2.4-6.2h-8.8l-2.4,6.2h-3.9ZM587.7,575.3l-3.8,9.9h7.5l-3.7-9.9Z" class="st0"></path>
      <path d="M602.5,582.5c0-1.4.2-2.7.7-4.1.5-1.4,1.2-2.6,2.1-3.7.9-1.1,2.1-2,3.4-2.6,1.3-.7,2.9-1,4.6-1s3.8.5,5.3,1.4c1.5.9,2.6,2.1,3.3,3.6l-2.8,1.9c-.3-.7-.7-1.3-1.1-1.7-.5-.5-.9-.8-1.5-1.1-.5-.3-1.1-.5-1.6-.6-.6-.1-1.1-.2-1.6-.2-1.2,0-2.2.2-3.1.7-.9.5-1.6,1.1-2.2,1.9-.6.8-1.1,1.7-1.4,2.7-.3,1-.4,2-.4,3s.2,2.2.5,3.2c.4,1,.9,1.9,1.5,2.7.6.8,1.4,1.4,2.3,1.8.9.5,1.8.7,2.9.7s1.1,0,1.7-.2c.6-.1,1.1-.4,1.7-.7.5-.3,1-.7,1.5-1.2.5-.5.8-1,1.1-1.7l3,1.7c-.4.9-.9,1.6-1.5,2.3-.7.7-1.4,1.2-2.2,1.7-.8.4-1.7.8-2.6,1-.9.2-1.8.4-2.7.4-1.6,0-3-.3-4.3-1-1.3-.7-2.4-1.6-3.4-2.7-1-1.1-1.7-2.4-2.2-3.8-.5-1.4-.8-2.8-.8-4.3Z" class="st0"></path>
      <path d="M627,594.1l9.2-22.8h3l9.2,22.8h-3.8l-2.4-6.2h-8.8l-2.4,6.2h-3.9ZM637.7,575.3l-3.8,9.9h7.5l-3.7-9.9Z" class="st0"></path>
      <path d="M654.7,594.1v-22.8h8.1c1.8,0,3.5.3,4.8.9,1.4.6,2.5,1.4,3.5,2.4.9,1,1.6,2.2,2.1,3.6.5,1.4.7,2.9.7,4.4s-.3,3.3-.8,4.7c-.5,1.4-1.3,2.6-2.2,3.6-1,1-2.1,1.8-3.5,2.3-1.4.5-2.9.8-4.6.8h-8.1ZM670.3,582.7c0-1.2-.2-2.3-.5-3.3s-.8-1.9-1.5-2.6-1.4-1.3-2.4-1.7-2-.6-3.2-.6h-4.5v16.5h4.5c1.2,0,2.3-.2,3.2-.6.9-.4,1.7-1,2.4-1.7.6-.7,1.1-1.6,1.4-2.6.3-1,.5-2.1.5-3.3Z" class="st0"></path>
      <path d="M697.4,590.9v3.2h-15.7v-22.8h15.4v3.2h-11.8v6.5h10.2v3h-10.2v7h12.1Z" class="st0"></path>
      <path d="M724.1,594.1v-16.4l-6.8,12.5h-2l-6.8-12.5v16.4h-3.6v-22.8h3.9l7.6,14,7.6-14h3.9v22.8h-3.6Z" class="st0"></path>
      <path d="M736.8,594.1v-22.8h3.6v22.8h-3.6Z" class="st0"></path>
      <path d="M746.8,594.1l9.2-22.8h3l9.2,22.8h-3.8l-2.4-6.2h-8.8l-2.4,6.2h-3.9ZM757.5,575.3l-3.8,9.9h7.5l-3.7-9.9Z" class="st0"></path>
      <path d="M785.2,594.1v-22.8h8.1c1.8,0,3.5.3,4.8.9,1.4.6,2.5,1.4,3.5,2.4.9,1,1.6,2.2,2.1,3.6.5,1.4.7,2.9.7,4.4s-.3,3.3-.8,4.7c-.5,1.4-1.3,2.6-2.2,3.6-1,1-2.1,1.8-3.5,2.3-1.4.5-2.9.8-4.6.8h-8.1ZM800.8,582.7c0-1.2-.2-2.3-.5-3.3s-.8-1.9-1.5-2.6c-.6-.7-1.4-1.3-2.4-1.7-.9-.4-2-.6-3.2-.6h-4.5v16.5h4.5c1.2,0,2.3-.2,3.2-.6.9-.4,1.7-1,2.4-1.7.6-.7,1.1-1.6,1.4-2.6.3-1,.5-2.1.5-3.3Z" class="st0"></path>
      <path d="M827.9,590.9v3.2h-15.7v-22.8h15.4v3.2h-11.8v6.5h10.2v3h-10.2v7h12.1Z" class="st0"></path>
      <path d="M846.1,594.1v-22.8h3.6v11.9l10.9-11.9h3.9l-9,10.1,9.5,12.7h-3.9l-7.8-10.7-3.6,3.7v6.9h-3.6Z" class="st0"></path>
      <path d="M869.8,594.1l9.2-22.8h3l9.2,22.8h-3.8l-2.4-6.2h-8.8l-2.4,6.2h-3.9ZM880.5,575.3l-3.8,9.9h7.5l-3.7-9.9Z" class="st0"></path>
      <path d="M897.6,594.1v-22.8h9.9c1,0,2,.2,2.9.6.9.4,1.6,1,2.2,1.7s1.1,1.5,1.5,2.4c.4.9.5,1.8.5,2.7s-.1,1.5-.3,2.2-.5,1.4-.9,2-.9,1.1-1.4,1.6c-.6.4-1.2.8-1.8,1l5.4,8.7h-4.1l-5-7.9h-5.3v7.9h-3.6ZM901.2,583h6.3c.5,0,1-.1,1.4-.3.4-.2.8-.5,1.1-.9.3-.4.5-.9.7-1.4.2-.5.3-1.1.3-1.6s-.1-1.1-.3-1.6c-.2-.5-.5-1-.8-1.4-.3-.4-.7-.7-1.2-.9-.4-.2-.9-.3-1.4-.3h-6.1v8.5Z" class="st0"></path>
      <path d="M921.1,594.1l9.2-22.8h3l9.2,22.8h-3.8l-2.4-6.2h-8.8l-2.4,6.2h-3.9ZM931.8,575.3l-3.8,9.9h7.5l-3.7-9.9Z" class="st0"></path>
      <path d="M963,574.5h-7.6v19.7h-3.6v-19.7h-7.6v-3.2h18.8v3.2Z" class="st0"></path>
      <path d="M985.3,590.9v3.2h-15.7v-22.8h15.4v3.2h-11.8v6.5h10.2v3h-10.2v7h12.1Z" class="st0"></path>
      <path d="M991.8,586.9v-3.2h9.6v3.2h-9.6Z" class="st0"></path>
      <path d="M1010,594.1v-22.8h8.1c1.8,0,3.5.3,4.8.9,1.4.6,2.5,1.4,3.5,2.4s1.6,2.2,2.1,3.6c.5,1.4.7,2.9.7,4.4s-.3,3.3-.8,4.7c-.5,1.4-1.3,2.6-2.2,3.6-1,1-2.1,1.8-3.5,2.3-1.4.5-2.9.8-4.6.8h-8.1ZM1025.6,582.7c0-1.2-.2-2.3-.5-3.3-.3-1-.8-1.9-1.5-2.6-.6-.7-1.4-1.3-2.4-1.7-.9-.4-2-.6-3.2-.6h-4.5v16.5h4.5c1.2,0,2.3-.2,3.2-.6.9-.4,1.7-1,2.4-1.7.6-.7,1.1-1.6,1.4-2.6.3-1,.5-2.1.5-3.3Z" class="st0"></path>
      <path d="M1046.4,594.3c-1.6,0-3.1-.3-4.4-1-1.3-.7-2.5-1.5-3.4-2.6-1-1.1-1.7-2.3-2.2-3.7-.5-1.4-.8-2.8-.8-4.3s.3-3,.8-4.4c.5-1.4,1.3-2.6,2.3-3.7,1-1.1,2.1-1.9,3.4-2.6,1.3-.6,2.8-1,4.3-1s3.1.3,4.4,1c1.3.7,2.5,1.6,3.4,2.7.9,1.1,1.7,2.3,2.2,3.7.5,1.4.8,2.8.8,4.2s-.3,3-.8,4.4c-.5,1.4-1.3,2.6-2.3,3.7-1,1.1-2.1,1.9-3.4,2.5-1.3.6-2.8,1-4.3,1ZM1039.3,582.7c0,1.1.2,2.1.5,3.1.3,1,.8,1.9,1.4,2.7.6.8,1.4,1.4,2.3,1.8.9.5,1.9.7,3,.7s2.1-.2,3-.7c.9-.5,1.6-1.1,2.3-1.9.6-.8,1.1-1.7,1.4-2.7.3-1,.5-2,.5-3s-.2-2.1-.5-3.1c-.3-1-.8-1.9-1.4-2.6-.6-.8-1.4-1.4-2.3-1.8s-1.9-.7-2.9-.7-2.1.2-3,.7c-.9.5-1.6,1.1-2.3,1.9-.6.8-1.1,1.7-1.4,2.7-.3,1-.5,2-.5,3Z" class="st0"></path>
    </g>
    <g>
      <g>
        <path d="M774.1,617.7c3.3-.9,13,4,10.9,8.3-2.7,12.2-2.9,26.2,2.1,37.7,1.3,2,2.5,2,3.7,0,4.6-7.5,8.5-15.3,13.5-22.5,2.7,3.9-13,22.9-9.8,30.8,1.1,5.9-7.4-.4-8.7-2.5-8.5-13.7-4.7-29.7-6.7-44.5-.4-2.8-1.8-5.1-4.5-6.4-.3-.1-.8-.5-.5-.9Z" class="st0"></path>
        <path d="M816.9,622.8c.4-.5,1.1,0,1.5.1,10.6,5.6,17.9,13.9,20.7,25.7.4,2.6,1.4,7.6-2.3,7.9-1.8.2-2.8-.5-3.2-2.3-1.5-11.5-6.5-22-15.3-29.6-.4-.4-.8-.7-1.2-1.1,0,0-.5-.3-.2-.7Z" class="st0"></path>
      </g>
      <g>
        <path d="M729.9,653.8c-3.8-1.6-14.6-.2-18.6.2-7.4.7-7.1-1-1.4-4.5,4.9-3,3.6-3.4-2.5-5.4-1.4-.5-2.4-1.8-3.5-1.6-1.3,1.5.6,3.6-1,6.5-3.6,8-9.8,6.9-15.9,5.6-5-.2-2.6,4.8-1,7.4,2.4,3.9.9,20.9.8,21.3-.8,2.3-.5,3.4,3.3,3.6,5.3.3,3.4-2.6,4.4-5.3.8-1.6,5.7-1.4,8.6-1.4,4.5,0,9.7-.3,13,0,1.9.2,6.9-1.6,5.4,2-2.8,4.9,5.9,1.5,6.8,1,.7-.5.7-1.5.7-3.4,0-5,2.1-16.9,3.4-20.1,2.2-2.7,1.5-4.4-2.5-6ZM725.4,669c-1,9.1-5.4,9-13.6,8.5-6-1-13.2,1.9-18.2-.3-1.4-1.4-1-4.3.1-6.1.7-1.1,2-1.1,4.6-1.3,4.6-.4,10.7-.1,14.4,0,1.4,0,6.2.9,6.3-1.7-2.3-3.6-16.1-3.3-17.9-2-1.6.6-8.7,3.2-8.5,1.3.2-3.1-4.9-10.1.4-10,7.3.9,17.3,2.9,25.9,2.8,6.5-.7,8.3.6,6.4,8.7Z" class="st0"></path>
        <path d="M683.8,621.7c2.2.5,9.2,5.3,5.4,0-1.3-1.7-4.1-4.2-6.3-4.3-4.4,2.3-3.9,3.6.9,4.3Z" class="st0"></path>
        <path d="M712.8,621c3.1,0,7,2.5,9.5,3.1.1-2.8-4.2-5.7-6.6-6.7-1.6-.4-6.8,3.9-2.9,3.6Z" class="st0"></path>
        <path d="M702.6,605.5c-6.5,8.3-14.5,4.7-23.3,2.7-2.6,0-3.7,4.5-3.2,6.6,1.3,2,6.5-1.2,8.4-.8,3.6,0,10-1.8,12.7.6.8,1.4,0,2.9.3,4.7.6,3.9-2.7,5.7-5.7,7.7-2.9,1.9-11.2,7.5-11.5,11.6,0,.7.7,1.1,1.3.8,4.8-2.9,15.7-14.7,15.4-6.9,0,4.1-1.2,5,.4,9.5.9,2.4,1.1,2.6,1.6,0,1.6-9.3,1.6-18.7,3.1-28.1.3-1.2,1.5-2.6,2-3.8.2-1.2-.7-4.6-1.7-4.7h0Z" class="st0"></path>
        <path d="M734.8,605.5c-1.1.5-2.4,2.5-3.1,3.1-2.1,1.9-4.2,1.9-7.4,2.1s-9.2-1.9-12.9-2.5c-2.3-.3-3.2,4-3.3,4.7-.5,3.6,1,2.7,3.4,2.2,3.8-1.2,7.6-1.2,11.4-1.5,2-.2,5.4-.2,6.2.9,1.1,1.4.1,2.9.4,4.8.4,1.8-.8,4.2-1.9,5.1-3.3,2.9-17.1,10.4-15,15.7,3.9-1.2,16.9-15.9,16.5-7.5,0,4.1-1.2,5,.4,9.5.9,2.4,1.1,2.6,1.6,0,2.5-10.6-.2-22.3,5.2-32.1,0-.8-.7-4.6-1.7-4.5v-.4s0,0,0,0v.4Z" class="st0"></path>
      </g>
      <path d="M633,671c-.1-.4-.6-.4-.8,0-1.9,5.1-6.7,6.3-12,6.1-7,.2-4.5-5.7-3.3-10,1.4-4.9-1.3-10.4-4.2-14.5-1.5-2.1,5.8-1.3,6.5-.8,2.1,1.4,3.4,5.6,6.1,4.9,3.5-.6,2.7-6.5,2.5-7.7-1.5-10.8.2-28.2,5.1-35.1.4-.7.9-2.1.5-3-.2-.6-.3-.7-3.6-2.3-1.8-.8-2.7-1.3-3.1-1.3-11.2,1.3-18.8,2.3-30,.4-4.9-.2-12.5-4.5-8.5,4.1,2.9,8.2,2.5,5.8,2.4,17.2-.6,9.7-.3,13.1-2.4,21.4-2.2,5.2,5.7,4.2,8.4,2.5.5-.3,1.2.2,1,.8-2.6,12.5-12.1,21-19.7,30.7-.4.5-1.3,1.3-.9,1.2,11.9-2.2,23-18.6,26.1-29.2,2.3-7.2,7.5-3.1,7.3,2.8.2,12.7-6.3,27.2,13.5,24.4,9.6-.6,12.7-2.7,9-12.6ZM610.3,649.1c-3.1,0-5.9,0-9.6.3-2.5.3-8.1,1.1-6.3-2.9.5-1-.2-3.9-.2-5.2,0-.3.2-1,.7-1,1.1,0,7.5.2,9.5.1,4.2-.3,13.8,1.8,13.7,1.1-.6-1.4-1.5-2.3-2.4-3.7-.8-1.2-1-1.9-2.5-1.8-6.1.5-8.3.4-13.1,1.6-3.2,1.2-5,.1-5.3-3.7-1.3-6.8,5.8-8,11.4-7.1,6.3.3,7.1,1,11.2,2.3.3,0,.6-.2.7-.5,2.2-6.9-8.7-5.7-14-5.3-8.3,1.5-7.5-1.4-7.6-8-.3-1.5-3.6-6.4-1.1-6,10.8,3.9,31.6-3.1,28.5,15.1-.4,3.8-.2.8-1.4,11.5-2.7,17.8,8.7,13.3-12.2,13Z" class="st0"></path>
    </g>
  </g>
  <g>
    <path d="M168.7,586.6h40.3c1.4,0,2.2-.3,2.8-2.1,1.7-4.7,3.5-9.4,5.3-14,1.8-4.6,3.5-9.2,5.2-13.8l15.3-43.8c1.6-4.3,3.3-9.2,5.2-14.9,1.5-4.4,3.4-10.2,5.2-16.1,2-6.3,3.7-11.5,5.3-16.3,1.7-5,3.4-10.1,5.3-15.2l4.4-11.8,4,12,20.9,62.5,15.3,43.9c1.7,4.6,3.4,9.2,5.1,13.7,1.7,4.6,3.5,9.2,5.3,13.9.5,1.5,1,1.8,1,1.8.1,0,.6.4,2.4.4h39.3c.7,0,1.2,0,1.5-.1l-71.7-185-3.1-7.1c-.4-.4-.9-.9-1.6-1.6-.1-.1-.3-.3-1-.3h-35c0,0-.3,0-.7.2-.4.2-.8.4-1.3.7-.4.3-.7.6-1,1h0c0,.1-.2.6-.2.6l-74,191.6c.2,0,.3,0,.6,0Z" class="st2"></path>
    <path d="M358.4,617.9h-191c-1,0-1.4.2-1.4.2,0,0-.2.4-.2,1.4v40.2c0,2.3.3,2.3,1.6,2.3h191c.3,0,.4,0,.7-.4.8-1.1.8-1.7.8-1.8v-40.2c0-.7-.1-1.1-.2-1.1-.3-.2-.6-.5-1.4-.5Z" class="st2"></path>
    <path d="M503,540c0-132.4-107.7-240.1-240.1-240.1S22.8,407.6,22.8,540s107.7,240.1,240.1,240.1,240.1-107.7,240.1-240.1ZM262.9,743.6c-112.3,0-203.6-91.3-203.6-203.6s91.3-203.6,203.6-203.6,203.6,91.3,203.6,203.6-91.3,203.6-203.6,203.6Z" class="st2"></path>
  </g>
  <rect height="384.1" width="8.2" y="348" x="535.9" class="st0"></rect>
</svg></svg><style>@media (prefers-color-scheme: light) { :root { filter: contrast(1) brightness(0.9); } }
@media (prefers-color-scheme: dark) { :root { filter: none; } }
</style></svg>